<mxfile host="app.diagrams.net" agent="Mozilla/5.0 (X11; Ubuntu; Linux x86_64; rv:134.0) Gecko/20100101 Firefox/134.0" version="26.0.10" pages="18">
  <diagram id="pwBAmaQ0iMDTgi8jjtZy" name="desktop-header">
    <mxGraphModel dx="1912" dy="1256" grid="1" gridSize="10" guides="1" tooltips="1" connect="1" arrows="1" fold="1" page="1" pageScale="1" pageWidth="1600" pageHeight="900" background="none" math="0" shadow="0">
      <root>
        <mxCell id="0" />
        <mxCell id="1" style="locked=1;" parent="0" />
        <mxCell id="7YqNu8k0UD2kvPxJVRAt-10" value="Header" style="locked=1;" parent="0" />
        <mxCell id="7YqNu8k0UD2kvPxJVRAt-11" value="LOGO" style="whiteSpace=wrap;html=1;rounded=0;shadow=0;labelBackgroundColor=none;strokeWidth=1;fontFamily=Verdana;fontSize=28;align=center;comic=1;" parent="7YqNu8k0UD2kvPxJVRAt-10" vertex="1">
          <mxGeometry x="30" y="20" width="190" height="50" as="geometry" />
        </mxCell>
        <mxCell id="7YqNu8k0UD2kvPxJVRAt-12" value="Menu 1" style="text;html=1;points=[];align=left;verticalAlign=top;spacingTop=-4;fontSize=14;fontFamily=Verdana" parent="7YqNu8k0UD2kvPxJVRAt-10" vertex="1">
          <mxGeometry x="1290" y="35" width="60" height="20" as="geometry" />
        </mxCell>
        <mxCell id="7YqNu8k0UD2kvPxJVRAt-13" value="Menu 2" style="text;html=1;points=[];align=left;verticalAlign=top;spacingTop=-4;fontSize=14;fontFamily=Verdana" parent="7YqNu8k0UD2kvPxJVRAt-10" vertex="1">
          <mxGeometry x="1370" y="35" width="60" height="20" as="geometry" />
        </mxCell>
        <mxCell id="7YqNu8k0UD2kvPxJVRAt-14" value="Menu 3" style="text;html=1;points=[];align=left;verticalAlign=top;spacingTop=-4;fontSize=14;fontFamily=Verdana" parent="7YqNu8k0UD2kvPxJVRAt-10" vertex="1">
          <mxGeometry x="1440" y="35" width="60" height="20" as="geometry" />
        </mxCell>
        <mxCell id="7YqNu8k0UD2kvPxJVRAt-15" value="Menu 4" style="text;html=1;points=[];align=left;verticalAlign=top;spacingTop=-4;fontSize=14;fontFamily=Verdana" parent="7YqNu8k0UD2kvPxJVRAt-10" vertex="1">
          <mxGeometry x="1510" y="35" width="60" height="20" as="geometry" />
        </mxCell>
        <mxCell id="7YqNu8k0UD2kvPxJVRAt-16" value="" style="line;strokeWidth=1;html=1;rounded=0;shadow=0;labelBackgroundColor=none;fillColor=none;fontFamily=Verdana;fontSize=14;fontColor=#000000;align=center;comic=1;" parent="7YqNu8k0UD2kvPxJVRAt-10" vertex="1">
          <mxGeometry x="30" y="63" width="1540" height="50" as="geometry" />
        </mxCell>
      </root>
    </mxGraphModel>
  </diagram>
  <diagram name="mobile-header" id="05eSF24TcUiADn40OOa4">
    <mxGraphModel dx="754" dy="942" grid="1" gridSize="10" guides="1" tooltips="1" connect="1" arrows="1" fold="1" page="1" pageScale="1" pageWidth="340" pageHeight="480" background="none" math="0" shadow="0">
      <root>
        <mxCell id="OZeFwBwhYnvyTXCxdsO8-0" />
        <mxCell id="OZeFwBwhYnvyTXCxdsO8-1" style="locked=1;" parent="OZeFwBwhYnvyTXCxdsO8-0" />
        <mxCell id="OZeFwBwhYnvyTXCxdsO8-2" value="Header" style="locked=1;" parent="OZeFwBwhYnvyTXCxdsO8-0" />
        <mxCell id="OZeFwBwhYnvyTXCxdsO8-3" value="LOGO" style="whiteSpace=wrap;html=1;rounded=0;shadow=0;labelBackgroundColor=none;strokeWidth=1;fontFamily=Verdana;fontSize=28;align=center;comic=1;" parent="OZeFwBwhYnvyTXCxdsO8-2" vertex="1">
          <mxGeometry x="690" y="10" width="190" height="50" as="geometry" />
        </mxCell>
        <mxCell id="OZeFwBwhYnvyTXCxdsO8-8" value="" style="line;strokeWidth=1;html=1;rounded=0;shadow=0;labelBackgroundColor=none;fillColor=none;fontFamily=Verdana;fontSize=14;fontColor=#000000;align=center;comic=1;" parent="OZeFwBwhYnvyTXCxdsO8-2" vertex="1">
          <mxGeometry x="680" y="63" width="340" height="50" as="geometry" />
        </mxCell>
        <mxCell id="ilD3SBuY0OjZTYAmqnx5-0" value="" style="editableCssRules=path;shape=image;aspect=fixed;image=data:image/svg+xml,PHN2ZyB4bWxucz0iaHR0cDovL3d3dy53My5vcmcvMjAwMC9zdmciIHZpZXdCb3g9IjAgMCA0NDggNTEyIj48IS0tISBGb250IEF3ZXNvbWUgRnJlZSA2LjEuMSBieSBAZm9udGF3ZXNvbWUgLSBodHRwczovL2ZvbnRhd2Vzb21lLmNvbSBMaWNlbnNlIC0gaHR0cHM6Ly9mb250YXdlc29tZS5jb20vbGljZW5zZS9mcmVlIChJY29uczogQ0MgQlkgNC4wLCBGb250czogU0lMIE9GTCAxLjEsIENvZGU6IE1JVCBMaWNlbnNlKSBDb3B5cmlnaHQgMjAyMiBGb250aWNvbnMsIEluYy4gLS0+PHN0eWxlIHR5cGU9InRleHQvY3NzIj5wYXRoIHsgZmlsbDogcmdiKDI2LCAyNiwgMjYpOyB9IDwvc3R5bGU+PHBhdGggZD0iTTAgOTZDMCA3OC4zMyAxNC4zMyA2NCAzMiA2NEg0MTZDNDMzLjcgNjQgNDQ4IDc4LjMzIDQ0OCA5NkM0NDggMTEzLjcgNDMzLjcgMTI4IDQxNiAxMjhIMzJDMTQuMzMgMTI4IDAgMTEzLjcgMCA5NnpNMCAyNTZDMCAyMzguMyAxNC4zMyAyMjQgMzIgMjI0SDQxNkM0MzMuNyAyMjQgNDQ4IDIzOC4zIDQ0OCAyNTZDNDQ4IDI3My43IDQzMy43IDI4OCA0MTYgMjg4SDMyQzE0LjMzIDI4OCAwIDI3My43IDAgMjU2ek00MTYgNDQ4SDMyQzE0LjMzIDQ0OCAwIDQzMy43IDAgNDE2QzAgMzk4LjMgMTQuMzMgMzg0IDMyIDM4NEg0MTZDNDMzLjcgMzg0IDQ0OCAzOTguMyA0NDggNDE2QzQ0OCA0MzMuNyA0MzMuNyA0NDggNDE2IDQ0OHoiLz48L3N2Zz4=;connectable=0;movable=1;verticalLabelPosition=bottom;resizable=1;rotatable=0;cloneable=0;deletable=1;recursiveResize=0;imageBackground=none;verticalAlign=top;shadow=0;dashed=0;comic=1;strokeColor=default;strokeWidth=1;align=left;spacingLeft=3;fontFamily=Helvetica;fontSize=17;fontColor=#666666;fillColor=default;" parent="OZeFwBwhYnvyTXCxdsO8-2" vertex="1">
          <mxGeometry x="950" y="10" width="53" height="53" as="geometry" />
        </mxCell>
      </root>
    </mxGraphModel>
  </diagram>
  <diagram name="mobile-adminpanel" id="hOFTWobdBuNyk1soY5Xj">
    <mxGraphModel dx="754" dy="942" grid="1" gridSize="10" guides="1" tooltips="1" connect="1" arrows="1" fold="1" page="1" pageScale="1" pageWidth="340" pageHeight="480" background="none" math="0" shadow="0">
      <root>
        <mxCell id="T1Zt6zgpqxA5bwvITpLL-0" />
        <mxCell id="T1Zt6zgpqxA5bwvITpLL-1" style="locked=1;" parent="T1Zt6zgpqxA5bwvITpLL-0" />
        <mxCell id="T1Zt6zgpqxA5bwvITpLL-2" value="Header" style="locked=1;" parent="T1Zt6zgpqxA5bwvITpLL-0" />
        <mxCell id="T1Zt6zgpqxA5bwvITpLL-3" value="LOGO" style="whiteSpace=wrap;html=1;rounded=0;shadow=0;labelBackgroundColor=none;strokeWidth=1;fontFamily=Verdana;fontSize=28;align=center;comic=1;" parent="T1Zt6zgpqxA5bwvITpLL-2" vertex="1">
          <mxGeometry x="690" y="10" width="190" height="50" as="geometry" />
        </mxCell>
        <mxCell id="T1Zt6zgpqxA5bwvITpLL-4" value="" style="line;strokeWidth=1;html=1;rounded=0;shadow=0;labelBackgroundColor=none;fillColor=none;fontFamily=Verdana;fontSize=14;fontColor=#000000;align=center;comic=1;" parent="T1Zt6zgpqxA5bwvITpLL-2" vertex="1">
          <mxGeometry x="680" y="63" width="340" height="50" as="geometry" />
        </mxCell>
        <mxCell id="T1Zt6zgpqxA5bwvITpLL-7" value="" style="editableCssRules=path;shape=image;aspect=fixed;image=data:image/svg+xml,PHN2ZyB4bWxucz0iaHR0cDovL3d3dy53My5vcmcvMjAwMC9zdmciIHZpZXdCb3g9IjAgMCA0NDggNTEyIj48IS0tISBGb250IEF3ZXNvbWUgRnJlZSA2LjEuMSBieSBAZm9udGF3ZXNvbWUgLSBodHRwczovL2ZvbnRhd2Vzb21lLmNvbSBMaWNlbnNlIC0gaHR0cHM6Ly9mb250YXdlc29tZS5jb20vbGljZW5zZS9mcmVlIChJY29uczogQ0MgQlkgNC4wLCBGb250czogU0lMIE9GTCAxLjEsIENvZGU6IE1JVCBMaWNlbnNlKSBDb3B5cmlnaHQgMjAyMiBGb250aWNvbnMsIEluYy4gLS0+PHN0eWxlIHR5cGU9InRleHQvY3NzIj5wYXRoIHsgZmlsbDogcmdiKDI2LCAyNiwgMjYpOyB9IDwvc3R5bGU+PHBhdGggZD0iTTAgOTZDMCA3OC4zMyAxNC4zMyA2NCAzMiA2NEg0MTZDNDMzLjcgNjQgNDQ4IDc4LjMzIDQ0OCA5NkM0NDggMTEzLjcgNDMzLjcgMTI4IDQxNiAxMjhIMzJDMTQuMzMgMTI4IDAgMTEzLjcgMCA5NnpNMCAyNTZDMCAyMzguMyAxNC4zMyAyMjQgMzIgMjI0SDQxNkM0MzMuNyAyMjQgNDQ4IDIzOC4zIDQ0OCAyNTZDNDQ4IDI3My43IDQzMy43IDI4OCA0MTYgMjg4SDMyQzE0LjMzIDI4OCAwIDI3My43IDAgMjU2ek00MTYgNDQ4SDMyQzE0LjMzIDQ0OCAwIDQzMy43IDAgNDE2QzAgMzk4LjMgMTQuMzMgMzg0IDMyIDM4NEg0MTZDNDMzLjcgMzg0IDQ0OCAzOTguMyA0NDggNDE2QzQ0OCA0MzMuNyA0MzMuNyA0NDggNDE2IDQ0OHoiLz48L3N2Zz4=;connectable=0;movable=1;verticalLabelPosition=bottom;resizable=1;rotatable=0;cloneable=0;deletable=1;recursiveResize=0;imageBackground=none;verticalAlign=top;shadow=0;dashed=0;comic=1;strokeColor=default;strokeWidth=1;align=left;spacingLeft=3;fontFamily=Helvetica;fontSize=17;fontColor=#666666;fillColor=default;" parent="T1Zt6zgpqxA5bwvITpLL-2" vertex="1">
          <mxGeometry x="950" y="10" width="53" height="53" as="geometry" />
        </mxCell>
        <mxCell id="rPBeAzwLpmXzjXTyW1pQ-0" value="Content" style="" parent="T1Zt6zgpqxA5bwvITpLL-0" />
        <mxCell id="QMBF1FnHgQcAjr6BAjBn-0" value="" style="whiteSpace=wrap;html=1;rounded=0;shadow=0;labelBackgroundColor=none;strokeWidth=1;fillColor=none;fontFamily=Verdana;fontSize=12;align=center;comic=1;verticalAlign=top;" parent="rPBeAzwLpmXzjXTyW1pQ-0" vertex="1">
          <mxGeometry x="730" y="110" width="240" height="70" as="geometry" />
        </mxCell>
        <mxCell id="QMBF1FnHgQcAjr6BAjBn-19" value="" style="verticalLabelPosition=bottom;shadow=0;dashed=0;align=center;html=1;verticalAlign=top;strokeWidth=1;shape=mxgraph.mockup.graphics.simpleIcon;strokeColor=#999999;" parent="rPBeAzwLpmXzjXTyW1pQ-0" vertex="1">
          <mxGeometry x="942" y="159" width="15" height="14" as="geometry" />
        </mxCell>
        <mxCell id="1ebDJefmtBmTPM0kMolF-0" value="Text" style="text;html=1;align=center;verticalAlign=middle;whiteSpace=wrap;rounded=0;strokeColor=default;" vertex="1" parent="rPBeAzwLpmXzjXTyW1pQ-0">
          <mxGeometry x="750" y="120" width="110" height="50" as="geometry" />
        </mxCell>
        <mxCell id="1ebDJefmtBmTPM0kMolF-4" value="&amp;nbsp;text" style="dashed=0;labelPosition=right;align=left;shape=mxgraph.gmdl.checkbox;strokeColor=none;fillColor=#B0B0B0;strokeWidth=2;aspect=fixed;sketch=0;html=1;" vertex="1" parent="rPBeAzwLpmXzjXTyW1pQ-0">
          <mxGeometry x="882" y="120" width="16" height="16" as="geometry" />
        </mxCell>
        <mxCell id="1ebDJefmtBmTPM0kMolF-5" value="" style="verticalLabelPosition=bottom;shadow=0;dashed=0;align=center;html=1;verticalAlign=top;strokeWidth=1;shape=mxgraph.mockup.graphics.simpleIcon;strokeColor=#999999;" vertex="1" parent="rPBeAzwLpmXzjXTyW1pQ-0">
          <mxGeometry x="912" y="159" width="15" height="14" as="geometry" />
        </mxCell>
        <mxCell id="1ebDJefmtBmTPM0kMolF-6" value="" style="whiteSpace=wrap;html=1;rounded=0;shadow=0;labelBackgroundColor=none;strokeWidth=1;fillColor=none;fontFamily=Verdana;fontSize=12;align=center;comic=1;verticalAlign=top;" vertex="1" parent="rPBeAzwLpmXzjXTyW1pQ-0">
          <mxGeometry x="730" y="200" width="240" height="70" as="geometry" />
        </mxCell>
        <mxCell id="1ebDJefmtBmTPM0kMolF-7" value="" style="verticalLabelPosition=bottom;shadow=0;dashed=0;align=center;html=1;verticalAlign=top;strokeWidth=1;shape=mxgraph.mockup.graphics.simpleIcon;strokeColor=#999999;" vertex="1" parent="rPBeAzwLpmXzjXTyW1pQ-0">
          <mxGeometry x="942" y="249" width="15" height="14" as="geometry" />
        </mxCell>
        <mxCell id="1ebDJefmtBmTPM0kMolF-8" value="Text" style="text;html=1;align=center;verticalAlign=middle;whiteSpace=wrap;rounded=0;strokeColor=default;" vertex="1" parent="rPBeAzwLpmXzjXTyW1pQ-0">
          <mxGeometry x="750" y="210" width="110" height="50" as="geometry" />
        </mxCell>
        <mxCell id="1ebDJefmtBmTPM0kMolF-9" value="&amp;nbsp;text" style="dashed=0;labelPosition=right;align=left;shape=mxgraph.gmdl.checkbox;strokeColor=none;fillColor=#B0B0B0;strokeWidth=2;aspect=fixed;sketch=0;html=1;" vertex="1" parent="rPBeAzwLpmXzjXTyW1pQ-0">
          <mxGeometry x="882" y="210" width="16" height="16" as="geometry" />
        </mxCell>
        <mxCell id="1ebDJefmtBmTPM0kMolF-10" value="" style="verticalLabelPosition=bottom;shadow=0;dashed=0;align=center;html=1;verticalAlign=top;strokeWidth=1;shape=mxgraph.mockup.graphics.simpleIcon;strokeColor=#999999;" vertex="1" parent="rPBeAzwLpmXzjXTyW1pQ-0">
          <mxGeometry x="912" y="249" width="15" height="14" as="geometry" />
        </mxCell>
      </root>
    </mxGraphModel>
  </diagram>
  <diagram name="desktop-adminpanel" id="BBjtkSE-DOwGxtZAvHXW">
    <mxGraphModel dx="2607" dy="1713" grid="1" gridSize="10" guides="1" tooltips="1" connect="1" arrows="1" fold="1" page="1" pageScale="1" pageWidth="1600" pageHeight="900" background="none" math="0" shadow="0">
      <root>
        <mxCell id="u5tXyJ6_sJYEL4rUWsX_-0" />
        <mxCell id="u5tXyJ6_sJYEL4rUWsX_-1" style="locked=1;" parent="u5tXyJ6_sJYEL4rUWsX_-0" />
        <mxCell id="u5tXyJ6_sJYEL4rUWsX_-2" value="Header" style="locked=1;" parent="u5tXyJ6_sJYEL4rUWsX_-0" />
        <mxCell id="u5tXyJ6_sJYEL4rUWsX_-3" value="LOGO" style="whiteSpace=wrap;html=1;rounded=0;shadow=0;labelBackgroundColor=none;strokeWidth=1;fontFamily=Verdana;fontSize=28;align=center;comic=1;" parent="u5tXyJ6_sJYEL4rUWsX_-2" vertex="1">
          <mxGeometry x="30" y="20" width="190" height="50" as="geometry" />
        </mxCell>
        <mxCell id="u5tXyJ6_sJYEL4rUWsX_-4" value="Menu 1" style="text;html=1;points=[];align=left;verticalAlign=top;spacingTop=-4;fontSize=14;fontFamily=Verdana" parent="u5tXyJ6_sJYEL4rUWsX_-2" vertex="1">
          <mxGeometry x="1290" y="35" width="60" height="20" as="geometry" />
        </mxCell>
        <mxCell id="u5tXyJ6_sJYEL4rUWsX_-5" value="Menu 2" style="text;html=1;points=[];align=left;verticalAlign=top;spacingTop=-4;fontSize=14;fontFamily=Verdana" parent="u5tXyJ6_sJYEL4rUWsX_-2" vertex="1">
          <mxGeometry x="1370" y="35" width="60" height="20" as="geometry" />
        </mxCell>
        <mxCell id="u5tXyJ6_sJYEL4rUWsX_-6" value="Menu 3" style="text;html=1;points=[];align=left;verticalAlign=top;spacingTop=-4;fontSize=14;fontFamily=Verdana" parent="u5tXyJ6_sJYEL4rUWsX_-2" vertex="1">
          <mxGeometry x="1440" y="35" width="60" height="20" as="geometry" />
        </mxCell>
        <mxCell id="u5tXyJ6_sJYEL4rUWsX_-7" value="Menu 4" style="text;html=1;points=[];align=left;verticalAlign=top;spacingTop=-4;fontSize=14;fontFamily=Verdana" parent="u5tXyJ6_sJYEL4rUWsX_-2" vertex="1">
          <mxGeometry x="1510" y="35" width="60" height="20" as="geometry" />
        </mxCell>
        <mxCell id="u5tXyJ6_sJYEL4rUWsX_-8" value="" style="line;strokeWidth=1;html=1;rounded=0;shadow=0;labelBackgroundColor=none;fillColor=none;fontFamily=Verdana;fontSize=14;fontColor=#000000;align=center;comic=1;" parent="u5tXyJ6_sJYEL4rUWsX_-2" vertex="1">
          <mxGeometry x="30" y="63" width="1540" height="50" as="geometry" />
        </mxCell>
        <mxCell id="vedBJ0zM8l1TPhgyrFKi-12" value="Content" style="" parent="u5tXyJ6_sJYEL4rUWsX_-0" />
        <mxCell id="T6mPUYt3x43iAkVcmDkl-5" value="" style="whiteSpace=wrap;html=1;rounded=0;shadow=0;labelBackgroundColor=none;strokeWidth=1;fillColor=none;fontFamily=Verdana;fontSize=12;align=center;comic=1;verticalAlign=top;" vertex="1" parent="vedBJ0zM8l1TPhgyrFKi-12">
          <mxGeometry x="520" y="110" width="560" height="160" as="geometry" />
        </mxCell>
        <mxCell id="T6mPUYt3x43iAkVcmDkl-6" value="" style="verticalLabelPosition=bottom;shadow=0;dashed=0;align=center;html=1;verticalAlign=top;strokeWidth=1;shape=mxgraph.mockup.graphics.simpleIcon;strokeColor=#999999;" vertex="1" parent="vedBJ0zM8l1TPhgyrFKi-12">
          <mxGeometry x="1037" y="240" width="19" height="18" as="geometry" />
        </mxCell>
        <mxCell id="T6mPUYt3x43iAkVcmDkl-7" value="Text" style="text;html=1;align=center;verticalAlign=middle;whiteSpace=wrap;rounded=0;strokeColor=default;" vertex="1" parent="vedBJ0zM8l1TPhgyrFKi-12">
          <mxGeometry x="530" y="120" width="290" height="140" as="geometry" />
        </mxCell>
        <mxCell id="T6mPUYt3x43iAkVcmDkl-8" value="&amp;nbsp;text" style="dashed=0;labelPosition=right;align=left;shape=mxgraph.gmdl.checkbox;strokeColor=none;fillColor=#B0B0B0;strokeWidth=2;sketch=0;html=1;" vertex="1" parent="vedBJ0zM8l1TPhgyrFKi-12">
          <mxGeometry x="880" y="130" width="16" height="16" as="geometry" />
        </mxCell>
        <mxCell id="T6mPUYt3x43iAkVcmDkl-9" value="" style="verticalLabelPosition=bottom;shadow=0;dashed=0;align=center;html=1;verticalAlign=top;strokeWidth=1;shape=mxgraph.mockup.graphics.simpleIcon;strokeColor=#999999;" vertex="1" parent="vedBJ0zM8l1TPhgyrFKi-12">
          <mxGeometry x="1007" y="240" width="19" height="18" as="geometry" />
        </mxCell>
        <mxCell id="T6mPUYt3x43iAkVcmDkl-10" value="" style="whiteSpace=wrap;html=1;rounded=0;shadow=0;labelBackgroundColor=none;strokeWidth=1;fillColor=none;fontFamily=Verdana;fontSize=12;align=center;comic=1;verticalAlign=top;" vertex="1" parent="vedBJ0zM8l1TPhgyrFKi-12">
          <mxGeometry x="520" y="300" width="560" height="160" as="geometry" />
        </mxCell>
        <mxCell id="T6mPUYt3x43iAkVcmDkl-11" value="" style="verticalLabelPosition=bottom;shadow=0;dashed=0;align=center;html=1;verticalAlign=top;strokeWidth=1;shape=mxgraph.mockup.graphics.simpleIcon;strokeColor=#999999;" vertex="1" parent="vedBJ0zM8l1TPhgyrFKi-12">
          <mxGeometry x="1037" y="430" width="19" height="18" as="geometry" />
        </mxCell>
        <mxCell id="T6mPUYt3x43iAkVcmDkl-12" value="Text" style="text;html=1;align=center;verticalAlign=middle;whiteSpace=wrap;rounded=0;strokeColor=default;" vertex="1" parent="vedBJ0zM8l1TPhgyrFKi-12">
          <mxGeometry x="530" y="310" width="290" height="140" as="geometry" />
        </mxCell>
        <mxCell id="T6mPUYt3x43iAkVcmDkl-13" value="&amp;nbsp;text" style="dashed=0;labelPosition=right;align=left;shape=mxgraph.gmdl.checkbox;strokeColor=none;fillColor=#B0B0B0;strokeWidth=2;sketch=0;html=1;" vertex="1" parent="vedBJ0zM8l1TPhgyrFKi-12">
          <mxGeometry x="880" y="320" width="16" height="16" as="geometry" />
        </mxCell>
        <mxCell id="T6mPUYt3x43iAkVcmDkl-14" value="" style="verticalLabelPosition=bottom;shadow=0;dashed=0;align=center;html=1;verticalAlign=top;strokeWidth=1;shape=mxgraph.mockup.graphics.simpleIcon;strokeColor=#999999;" vertex="1" parent="vedBJ0zM8l1TPhgyrFKi-12">
          <mxGeometry x="1007" y="430" width="19" height="18" as="geometry" />
        </mxCell>
      </root>
    </mxGraphModel>
  </diagram>
  <diagram name="mobile-dashboard" id="hXKaGxmr4RZ-k2qIATxm">
    <mxGraphModel dx="423" dy="725" grid="1" gridSize="10" guides="1" tooltips="1" connect="1" arrows="1" fold="1" page="1" pageScale="1" pageWidth="340" pageHeight="480" background="none" math="0" shadow="0">
      <root>
        <mxCell id="UbxVl1P6XpURnpthgCEg-0" />
        <mxCell id="UbxVl1P6XpURnpthgCEg-1" style="locked=1;" parent="UbxVl1P6XpURnpthgCEg-0" />
        <mxCell id="UbxVl1P6XpURnpthgCEg-2" value="Header" style="locked=1;" parent="UbxVl1P6XpURnpthgCEg-0" />
        <mxCell id="UbxVl1P6XpURnpthgCEg-3" value="LOGO" style="whiteSpace=wrap;html=1;rounded=0;shadow=0;labelBackgroundColor=none;strokeWidth=1;fontFamily=Verdana;fontSize=28;align=center;comic=1;" parent="UbxVl1P6XpURnpthgCEg-2" vertex="1">
          <mxGeometry x="690" y="10" width="190" height="50" as="geometry" />
        </mxCell>
        <mxCell id="UbxVl1P6XpURnpthgCEg-4" value="" style="line;strokeWidth=1;html=1;rounded=0;shadow=0;labelBackgroundColor=none;fillColor=none;fontFamily=Verdana;fontSize=14;fontColor=#000000;align=center;comic=1;" parent="UbxVl1P6XpURnpthgCEg-2" vertex="1">
          <mxGeometry x="680" y="63" width="340" height="50" as="geometry" />
        </mxCell>
        <mxCell id="UbxVl1P6XpURnpthgCEg-7" value="" style="editableCssRules=path;shape=image;aspect=fixed;image=data:image/svg+xml,PHN2ZyB4bWxucz0iaHR0cDovL3d3dy53My5vcmcvMjAwMC9zdmciIHZpZXdCb3g9IjAgMCA0NDggNTEyIj48IS0tISBGb250IEF3ZXNvbWUgRnJlZSA2LjEuMSBieSBAZm9udGF3ZXNvbWUgLSBodHRwczovL2ZvbnRhd2Vzb21lLmNvbSBMaWNlbnNlIC0gaHR0cHM6Ly9mb250YXdlc29tZS5jb20vbGljZW5zZS9mcmVlIChJY29uczogQ0MgQlkgNC4wLCBGb250czogU0lMIE9GTCAxLjEsIENvZGU6IE1JVCBMaWNlbnNlKSBDb3B5cmlnaHQgMjAyMiBGb250aWNvbnMsIEluYy4gLS0+PHN0eWxlIHR5cGU9InRleHQvY3NzIj5wYXRoIHsgZmlsbDogcmdiKDI2LCAyNiwgMjYpOyB9IDwvc3R5bGU+PHBhdGggZD0iTTAgOTZDMCA3OC4zMyAxNC4zMyA2NCAzMiA2NEg0MTZDNDMzLjcgNjQgNDQ4IDc4LjMzIDQ0OCA5NkM0NDggMTEzLjcgNDMzLjcgMTI4IDQxNiAxMjhIMzJDMTQuMzMgMTI4IDAgMTEzLjcgMCA5NnpNMCAyNTZDMCAyMzguMyAxNC4zMyAyMjQgMzIgMjI0SDQxNkM0MzMuNyAyMjQgNDQ4IDIzOC4zIDQ0OCAyNTZDNDQ4IDI3My43IDQzMy43IDI4OCA0MTYgMjg4SDMyQzE0LjMzIDI4OCAwIDI3My43IDAgMjU2ek00MTYgNDQ4SDMyQzE0LjMzIDQ0OCAwIDQzMy43IDAgNDE2QzAgMzk4LjMgMTQuMzMgMzg0IDMyIDM4NEg0MTZDNDMzLjcgMzg0IDQ0OCAzOTguMyA0NDggNDE2QzQ0OCA0MzMuNyA0MzMuNyA0NDggNDE2IDQ0OHoiLz48L3N2Zz4=;connectable=0;movable=1;verticalLabelPosition=bottom;resizable=1;rotatable=0;cloneable=0;deletable=1;recursiveResize=0;imageBackground=none;verticalAlign=top;shadow=0;dashed=0;comic=1;strokeColor=default;strokeWidth=1;align=left;spacingLeft=3;fontFamily=Helvetica;fontSize=17;fontColor=#1A1A1A;fillColor=default;" parent="UbxVl1P6XpURnpthgCEg-2" vertex="1">
          <mxGeometry x="950" y="10" width="53" height="53" as="geometry" />
        </mxCell>
        <mxCell id="7PteX6oxhd5rP_fcGun2-0" value="Content" style="locked=1;" parent="UbxVl1P6XpURnpthgCEg-0" />
        <mxCell id="J4s3-JDuo2XKbqYsYuxC-10" value="" style="whiteSpace=wrap;html=1;rounded=0;shadow=0;labelBackgroundColor=none;strokeWidth=1;fillColor=none;fontFamily=Verdana;fontSize=12;align=center;comic=1;verticalAlign=top;" vertex="1" parent="7PteX6oxhd5rP_fcGun2-0">
          <mxGeometry x="730" y="164" width="240" height="70" as="geometry" />
        </mxCell>
        <mxCell id="J4s3-JDuo2XKbqYsYuxC-11" value="" style="verticalLabelPosition=bottom;shadow=0;dashed=0;align=center;html=1;verticalAlign=top;strokeWidth=1;shape=mxgraph.mockup.graphics.simpleIcon;strokeColor=#999999;" vertex="1" parent="7PteX6oxhd5rP_fcGun2-0">
          <mxGeometry x="942" y="213" width="15" height="14" as="geometry" />
        </mxCell>
        <mxCell id="J4s3-JDuo2XKbqYsYuxC-12" value="Text" style="text;html=1;align=center;verticalAlign=middle;whiteSpace=wrap;rounded=0;strokeColor=default;comic=1;" vertex="1" parent="7PteX6oxhd5rP_fcGun2-0">
          <mxGeometry x="750" y="174" width="110" height="50" as="geometry" />
        </mxCell>
        <mxCell id="J4s3-JDuo2XKbqYsYuxC-13" value="&amp;nbsp;text" style="dashed=0;labelPosition=right;align=left;shape=mxgraph.gmdl.checkbox;strokeColor=none;fillColor=#B0B0B0;strokeWidth=2;aspect=fixed;sketch=0;html=1;" vertex="1" parent="7PteX6oxhd5rP_fcGun2-0">
          <mxGeometry x="882" y="174" width="16" height="16" as="geometry" />
        </mxCell>
        <mxCell id="J4s3-JDuo2XKbqYsYuxC-14" value="" style="verticalLabelPosition=bottom;shadow=0;dashed=0;align=center;html=1;verticalAlign=top;strokeWidth=1;shape=mxgraph.mockup.graphics.simpleIcon;strokeColor=#999999;" vertex="1" parent="7PteX6oxhd5rP_fcGun2-0">
          <mxGeometry x="912" y="213" width="15" height="14" as="geometry" />
        </mxCell>
        <mxCell id="J4s3-JDuo2XKbqYsYuxC-15" value="" style="whiteSpace=wrap;html=1;rounded=0;shadow=0;labelBackgroundColor=none;strokeWidth=1;fillColor=none;fontFamily=Verdana;fontSize=12;align=center;comic=1;verticalAlign=top;" vertex="1" parent="7PteX6oxhd5rP_fcGun2-0">
          <mxGeometry x="730" y="254" width="240" height="70" as="geometry" />
        </mxCell>
        <mxCell id="J4s3-JDuo2XKbqYsYuxC-16" value="" style="verticalLabelPosition=bottom;shadow=0;dashed=0;align=center;html=1;verticalAlign=top;strokeWidth=1;shape=mxgraph.mockup.graphics.simpleIcon;strokeColor=#999999;" vertex="1" parent="7PteX6oxhd5rP_fcGun2-0">
          <mxGeometry x="942" y="303" width="15" height="14" as="geometry" />
        </mxCell>
        <mxCell id="J4s3-JDuo2XKbqYsYuxC-17" value="Text" style="text;html=1;align=center;verticalAlign=middle;whiteSpace=wrap;rounded=0;strokeColor=default;comic=1;" vertex="1" parent="7PteX6oxhd5rP_fcGun2-0">
          <mxGeometry x="750" y="264" width="110" height="50" as="geometry" />
        </mxCell>
        <mxCell id="J4s3-JDuo2XKbqYsYuxC-18" value="&amp;nbsp;text" style="dashed=0;labelPosition=right;align=left;shape=mxgraph.gmdl.checkbox;strokeColor=none;fillColor=#B0B0B0;strokeWidth=2;aspect=fixed;sketch=0;html=1;" vertex="1" parent="7PteX6oxhd5rP_fcGun2-0">
          <mxGeometry x="882" y="264" width="16" height="16" as="geometry" />
        </mxCell>
        <mxCell id="J4s3-JDuo2XKbqYsYuxC-19" value="" style="verticalLabelPosition=bottom;shadow=0;dashed=0;align=center;html=1;verticalAlign=top;strokeWidth=1;shape=mxgraph.mockup.graphics.simpleIcon;strokeColor=#999999;" vertex="1" parent="7PteX6oxhd5rP_fcGun2-0">
          <mxGeometry x="912" y="303" width="15" height="14" as="geometry" />
        </mxCell>
        <mxCell id="b_mnKs2YIjAItfPK8Bwd-1" value="" style="group" vertex="1" connectable="0" parent="7PteX6oxhd5rP_fcGun2-0">
          <mxGeometry x="710" y="104" width="280" height="50" as="geometry" />
        </mxCell>
        <mxCell id="b_mnKs2YIjAItfPK8Bwd-0" value="" style="whiteSpace=wrap;html=1;rounded=0;shadow=0;labelBackgroundColor=none;strokeWidth=1;fillColor=none;fontFamily=Verdana;fontSize=12;align=center;comic=1;verticalAlign=top;" vertex="1" parent="b_mnKs2YIjAItfPK8Bwd-1">
          <mxGeometry y="-2" width="280" height="50" as="geometry" />
        </mxCell>
        <mxCell id="v1wT2zptg9y1boaLSMFx-0" value="&lt;font style=&quot;font-size: 20px;&quot;&gt;Button 1&lt;/font&gt;" style="whiteSpace=wrap;html=1;rounded=0;shadow=0;labelBackgroundColor=none;strokeWidth=1;fontFamily=Verdana;fontSize=20;align=center;comic=1;verticalAlign=middle;" parent="b_mnKs2YIjAItfPK8Bwd-1" vertex="1">
          <mxGeometry x="11" y="6" width="125" height="34" as="geometry" />
        </mxCell>
        <mxCell id="v1wT2zptg9y1boaLSMFx-1" value="&lt;font style=&quot;font-size: 20px;&quot;&gt;Button 2&lt;/font&gt;" style="whiteSpace=wrap;html=1;rounded=0;shadow=0;labelBackgroundColor=none;strokeWidth=1;fontFamily=Verdana;fontSize=20;align=center;comic=1;verticalAlign=middle;" parent="b_mnKs2YIjAItfPK8Bwd-1" vertex="1">
          <mxGeometry x="146" y="6" width="124" height="34" as="geometry" />
        </mxCell>
      </root>
    </mxGraphModel>
  </diagram>
  <diagram name="desktop-dashboard" id="C6t-3RBE0cOxXUbPyu9J">
    <mxGraphModel dx="1434" dy="942" grid="1" gridSize="10" guides="1" tooltips="1" connect="1" arrows="1" fold="1" page="1" pageScale="1" pageWidth="1600" pageHeight="900" background="none" math="0" shadow="0">
      <root>
        <mxCell id="ybhmMPaV8ckDlRvjS4hh-0" />
        <mxCell id="ybhmMPaV8ckDlRvjS4hh-1" style="locked=1;" parent="ybhmMPaV8ckDlRvjS4hh-0" />
        <mxCell id="ybhmMPaV8ckDlRvjS4hh-2" value="Header" style="locked=1;" parent="ybhmMPaV8ckDlRvjS4hh-0" />
        <mxCell id="ybhmMPaV8ckDlRvjS4hh-3" value="LOGO" style="whiteSpace=wrap;html=1;rounded=0;shadow=0;labelBackgroundColor=none;strokeWidth=1;fontFamily=Verdana;fontSize=28;align=center;comic=1;" parent="ybhmMPaV8ckDlRvjS4hh-2" vertex="1">
          <mxGeometry x="30" y="20" width="190" height="50" as="geometry" />
        </mxCell>
        <mxCell id="ybhmMPaV8ckDlRvjS4hh-4" value="Menu 1" style="text;html=1;points=[];align=left;verticalAlign=top;spacingTop=-4;fontSize=14;fontFamily=Verdana" parent="ybhmMPaV8ckDlRvjS4hh-2" vertex="1">
          <mxGeometry x="1290" y="35" width="60" height="20" as="geometry" />
        </mxCell>
        <mxCell id="ybhmMPaV8ckDlRvjS4hh-5" value="Menu 2" style="text;html=1;points=[];align=left;verticalAlign=top;spacingTop=-4;fontSize=14;fontFamily=Verdana" parent="ybhmMPaV8ckDlRvjS4hh-2" vertex="1">
          <mxGeometry x="1370" y="35" width="60" height="20" as="geometry" />
        </mxCell>
        <mxCell id="ybhmMPaV8ckDlRvjS4hh-6" value="Menu 3" style="text;html=1;points=[];align=left;verticalAlign=top;spacingTop=-4;fontSize=14;fontFamily=Verdana" parent="ybhmMPaV8ckDlRvjS4hh-2" vertex="1">
          <mxGeometry x="1440" y="35" width="60" height="20" as="geometry" />
        </mxCell>
        <mxCell id="ybhmMPaV8ckDlRvjS4hh-7" value="Menu 4" style="text;html=1;points=[];align=left;verticalAlign=top;spacingTop=-4;fontSize=14;fontFamily=Verdana" parent="ybhmMPaV8ckDlRvjS4hh-2" vertex="1">
          <mxGeometry x="1510" y="35" width="60" height="20" as="geometry" />
        </mxCell>
        <mxCell id="ybhmMPaV8ckDlRvjS4hh-8" value="" style="line;strokeWidth=1;html=1;rounded=0;shadow=0;labelBackgroundColor=none;fillColor=none;fontFamily=Verdana;fontSize=14;fontColor=#000000;align=center;comic=1;" parent="ybhmMPaV8ckDlRvjS4hh-2" vertex="1">
          <mxGeometry x="30" y="63" width="1540" height="50" as="geometry" />
        </mxCell>
        <mxCell id="_hJdyAHGnpdggQTVWJaW-0" value="Content" style="locked=1;" parent="ybhmMPaV8ckDlRvjS4hh-0" />
        <mxCell id="icdIflx00B0a-hnQ7UxM-0" value="" style="whiteSpace=wrap;html=1;rounded=0;shadow=0;labelBackgroundColor=none;strokeWidth=1;fillColor=none;fontFamily=Verdana;fontSize=12;align=center;comic=1;verticalAlign=top;" vertex="1" parent="_hJdyAHGnpdggQTVWJaW-0">
          <mxGeometry x="520" y="180" width="560" height="160" as="geometry" />
        </mxCell>
        <mxCell id="icdIflx00B0a-hnQ7UxM-1" value="" style="verticalLabelPosition=bottom;shadow=0;dashed=0;align=center;html=1;verticalAlign=top;strokeWidth=1;shape=mxgraph.mockup.graphics.simpleIcon;strokeColor=#999999;" vertex="1" parent="_hJdyAHGnpdggQTVWJaW-0">
          <mxGeometry x="1037" y="310" width="19" height="18" as="geometry" />
        </mxCell>
        <mxCell id="icdIflx00B0a-hnQ7UxM-2" value="Text" style="text;html=1;align=center;verticalAlign=middle;whiteSpace=wrap;rounded=0;strokeColor=default;" vertex="1" parent="_hJdyAHGnpdggQTVWJaW-0">
          <mxGeometry x="530" y="190" width="290" height="140" as="geometry" />
        </mxCell>
        <mxCell id="icdIflx00B0a-hnQ7UxM-3" value="&amp;nbsp;text" style="dashed=0;labelPosition=right;align=left;shape=mxgraph.gmdl.checkbox;strokeColor=none;fillColor=#B0B0B0;strokeWidth=2;sketch=0;html=1;" vertex="1" parent="_hJdyAHGnpdggQTVWJaW-0">
          <mxGeometry x="880" y="200" width="16" height="16" as="geometry" />
        </mxCell>
        <mxCell id="icdIflx00B0a-hnQ7UxM-4" value="" style="verticalLabelPosition=bottom;shadow=0;dashed=0;align=center;html=1;verticalAlign=top;strokeWidth=1;shape=mxgraph.mockup.graphics.simpleIcon;strokeColor=#999999;" vertex="1" parent="_hJdyAHGnpdggQTVWJaW-0">
          <mxGeometry x="1007" y="310" width="19" height="18" as="geometry" />
        </mxCell>
        <mxCell id="icdIflx00B0a-hnQ7UxM-5" value="" style="whiteSpace=wrap;html=1;rounded=0;shadow=0;labelBackgroundColor=none;strokeWidth=1;fillColor=none;fontFamily=Verdana;fontSize=12;align=center;comic=1;verticalAlign=top;" vertex="1" parent="_hJdyAHGnpdggQTVWJaW-0">
          <mxGeometry x="520" y="370" width="560" height="160" as="geometry" />
        </mxCell>
        <mxCell id="icdIflx00B0a-hnQ7UxM-6" value="" style="verticalLabelPosition=bottom;shadow=0;dashed=0;align=center;html=1;verticalAlign=top;strokeWidth=1;shape=mxgraph.mockup.graphics.simpleIcon;strokeColor=#999999;" vertex="1" parent="_hJdyAHGnpdggQTVWJaW-0">
          <mxGeometry x="1037" y="500" width="19" height="18" as="geometry" />
        </mxCell>
        <mxCell id="icdIflx00B0a-hnQ7UxM-7" value="Text" style="text;html=1;align=center;verticalAlign=middle;whiteSpace=wrap;rounded=0;strokeColor=default;" vertex="1" parent="_hJdyAHGnpdggQTVWJaW-0">
          <mxGeometry x="530" y="380" width="290" height="140" as="geometry" />
        </mxCell>
        <mxCell id="icdIflx00B0a-hnQ7UxM-8" value="&amp;nbsp;text" style="dashed=0;labelPosition=right;align=left;shape=mxgraph.gmdl.checkbox;strokeColor=none;fillColor=#B0B0B0;strokeWidth=2;sketch=0;html=1;" vertex="1" parent="_hJdyAHGnpdggQTVWJaW-0">
          <mxGeometry x="880" y="390" width="16" height="16" as="geometry" />
        </mxCell>
        <mxCell id="icdIflx00B0a-hnQ7UxM-9" value="" style="verticalLabelPosition=bottom;shadow=0;dashed=0;align=center;html=1;verticalAlign=top;strokeWidth=1;shape=mxgraph.mockup.graphics.simpleIcon;strokeColor=#999999;" vertex="1" parent="_hJdyAHGnpdggQTVWJaW-0">
          <mxGeometry x="1007" y="500" width="19" height="18" as="geometry" />
        </mxCell>
        <mxCell id="icdIflx00B0a-hnQ7UxM-11" value="" style="group" vertex="1" connectable="0" parent="_hJdyAHGnpdggQTVWJaW-0">
          <mxGeometry x="600" y="100" width="400" height="70" as="geometry" />
        </mxCell>
        <mxCell id="icdIflx00B0a-hnQ7UxM-10" value="" style="whiteSpace=wrap;html=1;rounded=0;shadow=0;labelBackgroundColor=none;strokeWidth=1;fillColor=none;fontFamily=Verdana;fontSize=12;align=center;comic=1;verticalAlign=top;" vertex="1" parent="icdIflx00B0a-hnQ7UxM-11">
          <mxGeometry width="400" height="70" as="geometry" />
        </mxCell>
        <mxCell id="_hJdyAHGnpdggQTVWJaW-1" value="&lt;font style=&quot;font-size: 20px;&quot;&gt;Button 1&lt;/font&gt;" style="whiteSpace=wrap;html=1;rounded=0;shadow=0;labelBackgroundColor=none;strokeWidth=1;fontFamily=Verdana;fontSize=20;align=center;comic=1;verticalAlign=middle;" parent="icdIflx00B0a-hnQ7UxM-11" vertex="1">
          <mxGeometry x="20" y="20" width="165" height="30" as="geometry" />
        </mxCell>
        <mxCell id="_hJdyAHGnpdggQTVWJaW-2" value="&lt;font style=&quot;font-size: 20px;&quot;&gt;Button 2&lt;/font&gt;" style="whiteSpace=wrap;html=1;rounded=0;shadow=0;labelBackgroundColor=none;strokeWidth=1;fontFamily=Verdana;fontSize=20;align=center;comic=1;verticalAlign=middle;" parent="icdIflx00B0a-hnQ7UxM-11" vertex="1">
          <mxGeometry x="215" y="20" width="165" height="30" as="geometry" />
        </mxCell>
      </root>
    </mxGraphModel>
  </diagram>
  <diagram name="mobile-edit-user" id="J6d0qUkzBIBIkWtjZ8f3">
    <mxGraphModel dx="1232" dy="1256" grid="1" gridSize="10" guides="1" tooltips="1" connect="1" arrows="1" fold="1" page="1" pageScale="1" pageWidth="340" pageHeight="480" background="none" math="0" shadow="0">
      <root>
        <mxCell id="GNnyf3h3qem7HU1mR-5U-0" />
        <mxCell id="GNnyf3h3qem7HU1mR-5U-1" style="locked=1;" parent="GNnyf3h3qem7HU1mR-5U-0" />
        <mxCell id="GNnyf3h3qem7HU1mR-5U-2" value="Header" style="locked=1;" parent="GNnyf3h3qem7HU1mR-5U-0" />
        <mxCell id="GNnyf3h3qem7HU1mR-5U-3" value="LOGO" style="whiteSpace=wrap;html=1;rounded=0;shadow=0;labelBackgroundColor=none;strokeWidth=1;fontFamily=Verdana;fontSize=28;align=center;comic=1;" parent="GNnyf3h3qem7HU1mR-5U-2" vertex="1">
          <mxGeometry x="690" y="10" width="190" height="50" as="geometry" />
        </mxCell>
        <mxCell id="GNnyf3h3qem7HU1mR-5U-4" value="" style="line;strokeWidth=1;html=1;rounded=0;shadow=0;labelBackgroundColor=none;fillColor=none;fontFamily=Verdana;fontSize=14;fontColor=#000000;align=center;comic=1;" parent="GNnyf3h3qem7HU1mR-5U-2" vertex="1">
          <mxGeometry x="680" y="63" width="340" height="50" as="geometry" />
        </mxCell>
        <mxCell id="GNnyf3h3qem7HU1mR-5U-7" value="" style="editableCssRules=path;shape=image;aspect=fixed;image=data:image/svg+xml,PHN2ZyB4bWxucz0iaHR0cDovL3d3dy53My5vcmcvMjAwMC9zdmciIHZpZXdCb3g9IjAgMCA0NDggNTEyIj48IS0tISBGb250IEF3ZXNvbWUgRnJlZSA2LjEuMSBieSBAZm9udGF3ZXNvbWUgLSBodHRwczovL2ZvbnRhd2Vzb21lLmNvbSBMaWNlbnNlIC0gaHR0cHM6Ly9mb250YXdlc29tZS5jb20vbGljZW5zZS9mcmVlIChJY29uczogQ0MgQlkgNC4wLCBGb250czogU0lMIE9GTCAxLjEsIENvZGU6IE1JVCBMaWNlbnNlKSBDb3B5cmlnaHQgMjAyMiBGb250aWNvbnMsIEluYy4gLS0+PHN0eWxlIHR5cGU9InRleHQvY3NzIj5wYXRoIHsgZmlsbDogcmdiKDI2LCAyNiwgMjYpOyB9IDwvc3R5bGU+PHBhdGggZD0iTTAgOTZDMCA3OC4zMyAxNC4zMyA2NCAzMiA2NEg0MTZDNDMzLjcgNjQgNDQ4IDc4LjMzIDQ0OCA5NkM0NDggMTEzLjcgNDMzLjcgMTI4IDQxNiAxMjhIMzJDMTQuMzMgMTI4IDAgMTEzLjcgMCA5NnpNMCAyNTZDMCAyMzguMyAxNC4zMyAyMjQgMzIgMjI0SDQxNkM0MzMuNyAyMjQgNDQ4IDIzOC4zIDQ0OCAyNTZDNDQ4IDI3My43IDQzMy43IDI4OCA0MTYgMjg4SDMyQzE0LjMzIDI4OCAwIDI3My43IDAgMjU2ek00MTYgNDQ4SDMyQzE0LjMzIDQ0OCAwIDQzMy43IDAgNDE2QzAgMzk4LjMgMTQuMzMgMzg0IDMyIDM4NEg0MTZDNDMzLjcgMzg0IDQ0OCAzOTguMyA0NDggNDE2QzQ0OCA0MzMuNyA0MzMuNyA0NDggNDE2IDQ0OHoiLz48L3N2Zz4=;connectable=0;movable=1;verticalLabelPosition=bottom;resizable=1;rotatable=0;cloneable=0;deletable=1;recursiveResize=0;imageBackground=none;verticalAlign=top;shadow=0;dashed=0;comic=1;strokeColor=default;strokeWidth=1;align=left;spacingLeft=3;fontFamily=Helvetica;fontSize=17;fontColor=#666666;fillColor=default;" parent="GNnyf3h3qem7HU1mR-5U-2" vertex="1">
          <mxGeometry x="950" y="10" width="53" height="53" as="geometry" />
        </mxCell>
        <mxCell id="0-xhYqv1YRFNhyUm6l8T-0" value="Content" style="locked=1;" parent="GNnyf3h3qem7HU1mR-5U-0" />
        <mxCell id="E6XqZuM22zvOCAcMpYat-0" value="" style="whiteSpace=wrap;html=1;comic=1;" vertex="1" parent="0-xhYqv1YRFNhyUm6l8T-0">
          <mxGeometry x="715" y="140" width="275" height="330" as="geometry" />
        </mxCell>
        <mxCell id="xDtM4q8XTOgFcwYc4Dm--0" value="&lt;font style=&quot;font-size: 20px;&quot;&gt;Button 1&lt;/font&gt;" style="whiteSpace=wrap;html=1;rounded=0;shadow=0;labelBackgroundColor=none;strokeWidth=1;fontFamily=Verdana;fontSize=20;align=center;comic=1;verticalAlign=middle;" parent="0-xhYqv1YRFNhyUm6l8T-0" vertex="1">
          <mxGeometry x="795" y="411" width="110" height="40" as="geometry" />
        </mxCell>
        <mxCell id="E6XqZuM22zvOCAcMpYat-1" value="***********" style="rounded=1;whiteSpace=wrap;html=1;align=left;" vertex="1" parent="0-xhYqv1YRFNhyUm6l8T-0">
          <mxGeometry x="730" y="361" width="240" height="40" as="geometry" />
        </mxCell>
        <mxCell id="E6XqZuM22zvOCAcMpYat-3" value="" style="rounded=1;whiteSpace=wrap;html=1;comic=1;" vertex="1" parent="0-xhYqv1YRFNhyUm6l8T-0">
          <mxGeometry x="730" y="201" width="240" height="150" as="geometry" />
        </mxCell>
        <mxCell id="E6XqZuM22zvOCAcMpYat-4" value="Text" style="text;html=1;align=center;verticalAlign=middle;whiteSpace=wrap;rounded=0;" vertex="1" parent="0-xhYqv1YRFNhyUm6l8T-0">
          <mxGeometry x="750" y="211" width="60" height="30" as="geometry" />
        </mxCell>
        <mxCell id="E6XqZuM22zvOCAcMpYat-6" value="Text" style="text;html=1;align=center;verticalAlign=middle;whiteSpace=wrap;rounded=0;" vertex="1" parent="0-xhYqv1YRFNhyUm6l8T-0">
          <mxGeometry x="750" y="251" width="60" height="30" as="geometry" />
        </mxCell>
        <mxCell id="E6XqZuM22zvOCAcMpYat-7" value="Text" style="text;html=1;align=center;verticalAlign=middle;whiteSpace=wrap;rounded=0;" vertex="1" parent="0-xhYqv1YRFNhyUm6l8T-0">
          <mxGeometry x="750" y="291" width="60" height="30" as="geometry" />
        </mxCell>
        <mxCell id="E6XqZuM22zvOCAcMpYat-8" value="Text" style="text;html=1;align=center;verticalAlign=middle;whiteSpace=wrap;rounded=0;strokeWidth=7;fontSize=24;" vertex="1" parent="0-xhYqv1YRFNhyUm6l8T-0">
          <mxGeometry x="735" y="150" width="60" height="30" as="geometry" />
        </mxCell>
      </root>
    </mxGraphModel>
  </diagram>
  <diagram name="desktop-edit-user" id="PqDhkZ9NH_WJZoqCeqA-">
    <mxGraphModel dx="2868" dy="1884" grid="1" gridSize="10" guides="1" tooltips="1" connect="1" arrows="1" fold="1" page="1" pageScale="1" pageWidth="1600" pageHeight="900" background="none" math="0" shadow="0">
      <root>
        <mxCell id="rB7OaC4YI7ZBG-0mkZoL-0" />
        <mxCell id="rB7OaC4YI7ZBG-0mkZoL-1" style="locked=1;" parent="rB7OaC4YI7ZBG-0mkZoL-0" />
        <mxCell id="rB7OaC4YI7ZBG-0mkZoL-2" value="Header" style="locked=1;" parent="rB7OaC4YI7ZBG-0mkZoL-0" />
        <mxCell id="rB7OaC4YI7ZBG-0mkZoL-3" value="LOGO" style="whiteSpace=wrap;html=1;rounded=0;shadow=0;labelBackgroundColor=none;strokeWidth=1;fontFamily=Verdana;fontSize=28;align=center;comic=1;" parent="rB7OaC4YI7ZBG-0mkZoL-2" vertex="1">
          <mxGeometry x="30" y="20" width="190" height="50" as="geometry" />
        </mxCell>
        <mxCell id="rB7OaC4YI7ZBG-0mkZoL-4" value="Menu 1" style="text;html=1;points=[];align=left;verticalAlign=top;spacingTop=-4;fontSize=14;fontFamily=Verdana" parent="rB7OaC4YI7ZBG-0mkZoL-2" vertex="1">
          <mxGeometry x="1290" y="35" width="60" height="20" as="geometry" />
        </mxCell>
        <mxCell id="rB7OaC4YI7ZBG-0mkZoL-5" value="Menu 2" style="text;html=1;points=[];align=left;verticalAlign=top;spacingTop=-4;fontSize=14;fontFamily=Verdana" parent="rB7OaC4YI7ZBG-0mkZoL-2" vertex="1">
          <mxGeometry x="1370" y="35" width="60" height="20" as="geometry" />
        </mxCell>
        <mxCell id="rB7OaC4YI7ZBG-0mkZoL-6" value="Menu 3" style="text;html=1;points=[];align=left;verticalAlign=top;spacingTop=-4;fontSize=14;fontFamily=Verdana" parent="rB7OaC4YI7ZBG-0mkZoL-2" vertex="1">
          <mxGeometry x="1440" y="35" width="60" height="20" as="geometry" />
        </mxCell>
        <mxCell id="rB7OaC4YI7ZBG-0mkZoL-7" value="Menu 4" style="text;html=1;points=[];align=left;verticalAlign=top;spacingTop=-4;fontSize=14;fontFamily=Verdana" parent="rB7OaC4YI7ZBG-0mkZoL-2" vertex="1">
          <mxGeometry x="1510" y="35" width="60" height="20" as="geometry" />
        </mxCell>
        <mxCell id="rB7OaC4YI7ZBG-0mkZoL-8" value="" style="line;strokeWidth=1;html=1;rounded=0;shadow=0;labelBackgroundColor=none;fillColor=none;fontFamily=Verdana;fontSize=14;fontColor=#000000;align=center;comic=1;" parent="rB7OaC4YI7ZBG-0mkZoL-2" vertex="1">
          <mxGeometry x="30" y="63" width="1540" height="50" as="geometry" />
        </mxCell>
        <mxCell id="rB7OaC4YI7ZBG-0mkZoL-12" value="Content" style="locked=1;" parent="rB7OaC4YI7ZBG-0mkZoL-0" />
        <mxCell id="6bVEXE0P-6UTxailA3_k-0" value="" style="whiteSpace=wrap;html=1;comic=1;" vertex="1" parent="rB7OaC4YI7ZBG-0mkZoL-12">
          <mxGeometry x="595" y="235" width="410" height="430" as="geometry" />
        </mxCell>
        <mxCell id="6bVEXE0P-6UTxailA3_k-1" value="&lt;font style=&quot;font-size: 20px;&quot;&gt;Button 1&lt;/font&gt;" style="whiteSpace=wrap;html=1;rounded=0;shadow=0;labelBackgroundColor=none;strokeWidth=1;fontFamily=Verdana;fontSize=20;align=center;comic=1;verticalAlign=middle;" vertex="1" parent="rB7OaC4YI7ZBG-0mkZoL-12">
          <mxGeometry x="745" y="595" width="110" height="40" as="geometry" />
        </mxCell>
        <mxCell id="6bVEXE0P-6UTxailA3_k-2" value="***********" style="rounded=1;whiteSpace=wrap;html=1;align=left;" vertex="1" parent="rB7OaC4YI7ZBG-0mkZoL-12">
          <mxGeometry x="612.5" y="535" width="372.5" height="40" as="geometry" />
        </mxCell>
        <mxCell id="6bVEXE0P-6UTxailA3_k-3" value="" style="rounded=1;whiteSpace=wrap;html=1;comic=1;" vertex="1" parent="rB7OaC4YI7ZBG-0mkZoL-12">
          <mxGeometry x="612.5" y="300.5" width="375" height="214.5" as="geometry" />
        </mxCell>
        <mxCell id="6bVEXE0P-6UTxailA3_k-4" value="Text" style="text;html=1;align=center;verticalAlign=middle;whiteSpace=wrap;rounded=0;" vertex="1" parent="rB7OaC4YI7ZBG-0mkZoL-12">
          <mxGeometry x="645" y="345" width="60" height="30" as="geometry" />
        </mxCell>
        <mxCell id="6bVEXE0P-6UTxailA3_k-5" value="Text" style="text;html=1;align=center;verticalAlign=middle;whiteSpace=wrap;rounded=0;" vertex="1" parent="rB7OaC4YI7ZBG-0mkZoL-12">
          <mxGeometry x="645" y="385" width="60" height="30" as="geometry" />
        </mxCell>
        <mxCell id="6bVEXE0P-6UTxailA3_k-6" value="Text" style="text;html=1;align=center;verticalAlign=middle;whiteSpace=wrap;rounded=0;" vertex="1" parent="rB7OaC4YI7ZBG-0mkZoL-12">
          <mxGeometry x="645" y="425" width="60" height="30" as="geometry" />
        </mxCell>
        <mxCell id="6bVEXE0P-6UTxailA3_k-7" value="Text" style="text;html=1;align=center;verticalAlign=middle;whiteSpace=wrap;rounded=0;strokeWidth=7;fontSize=34;" vertex="1" parent="rB7OaC4YI7ZBG-0mkZoL-12">
          <mxGeometry x="625" y="255" width="60" height="30" as="geometry" />
        </mxCell>
      </root>
    </mxGraphModel>
  </diagram>
  <diagram name="mobile-adicionar-todo" id="eB_MHKtuPscuHJjR89bN">
    <mxGraphModel dx="754" dy="942" grid="1" gridSize="10" guides="1" tooltips="1" connect="1" arrows="1" fold="1" page="1" pageScale="1" pageWidth="340" pageHeight="480" background="none" math="0" shadow="0">
      <root>
        <mxCell id="I1zV_MND1oV74Reajqi3-0" />
        <mxCell id="I1zV_MND1oV74Reajqi3-1" style="locked=1;" parent="I1zV_MND1oV74Reajqi3-0" />
        <mxCell id="I1zV_MND1oV74Reajqi3-2" value="Header" style="locked=1;" parent="I1zV_MND1oV74Reajqi3-0" />
        <mxCell id="I1zV_MND1oV74Reajqi3-3" value="LOGO" style="whiteSpace=wrap;html=1;rounded=0;shadow=0;labelBackgroundColor=none;strokeWidth=1;fontFamily=Verdana;fontSize=28;align=center;comic=1;" parent="I1zV_MND1oV74Reajqi3-2" vertex="1">
          <mxGeometry x="690" y="10" width="190" height="50" as="geometry" />
        </mxCell>
        <mxCell id="I1zV_MND1oV74Reajqi3-4" value="" style="line;strokeWidth=1;html=1;rounded=0;shadow=0;labelBackgroundColor=none;fillColor=none;fontFamily=Verdana;fontSize=14;fontColor=#000000;align=center;comic=1;" parent="I1zV_MND1oV74Reajqi3-2" vertex="1">
          <mxGeometry x="680" y="63" width="340" height="50" as="geometry" />
        </mxCell>
        <mxCell id="I1zV_MND1oV74Reajqi3-7" value="" style="editableCssRules=path;shape=image;aspect=fixed;image=data:image/svg+xml,PHN2ZyB4bWxucz0iaHR0cDovL3d3dy53My5vcmcvMjAwMC9zdmciIHZpZXdCb3g9IjAgMCA0NDggNTEyIj48IS0tISBGb250IEF3ZXNvbWUgRnJlZSA2LjEuMSBieSBAZm9udGF3ZXNvbWUgLSBodHRwczovL2ZvbnRhd2Vzb21lLmNvbSBMaWNlbnNlIC0gaHR0cHM6Ly9mb250YXdlc29tZS5jb20vbGljZW5zZS9mcmVlIChJY29uczogQ0MgQlkgNC4wLCBGb250czogU0lMIE9GTCAxLjEsIENvZGU6IE1JVCBMaWNlbnNlKSBDb3B5cmlnaHQgMjAyMiBGb250aWNvbnMsIEluYy4gLS0+PHN0eWxlIHR5cGU9InRleHQvY3NzIj5wYXRoIHsgZmlsbDogcmdiKDI2LCAyNiwgMjYpOyB9IDwvc3R5bGU+PHBhdGggZD0iTTAgOTZDMCA3OC4zMyAxNC4zMyA2NCAzMiA2NEg0MTZDNDMzLjcgNjQgNDQ4IDc4LjMzIDQ0OCA5NkM0NDggMTEzLjcgNDMzLjcgMTI4IDQxNiAxMjhIMzJDMTQuMzMgMTI4IDAgMTEzLjcgMCA5NnpNMCAyNTZDMCAyMzguMyAxNC4zMyAyMjQgMzIgMjI0SDQxNkM0MzMuNyAyMjQgNDQ4IDIzOC4zIDQ0OCAyNTZDNDQ4IDI3My43IDQzMy43IDI4OCA0MTYgMjg4SDMyQzE0LjMzIDI4OCAwIDI3My43IDAgMjU2ek00MTYgNDQ4SDMyQzE0LjMzIDQ0OCAwIDQzMy43IDAgNDE2QzAgMzk4LjMgMTQuMzMgMzg0IDMyIDM4NEg0MTZDNDMzLjcgMzg0IDQ0OCAzOTguMyA0NDggNDE2QzQ0OCA0MzMuNyA0MzMuNyA0NDggNDE2IDQ0OHoiLz48L3N2Zz4=;connectable=0;movable=1;verticalLabelPosition=bottom;resizable=1;rotatable=0;cloneable=0;deletable=1;recursiveResize=0;imageBackground=none;verticalAlign=top;shadow=0;dashed=0;comic=1;strokeColor=default;strokeWidth=1;align=left;spacingLeft=3;fontFamily=Helvetica;fontSize=17;fontColor=#666666;fillColor=default;" parent="I1zV_MND1oV74Reajqi3-2" vertex="1">
          <mxGeometry x="950" y="10" width="53" height="53" as="geometry" />
        </mxCell>
        <mxCell id="lA4nqWK-BkJNwYqBplnw-0" value="Content" style="" parent="I1zV_MND1oV74Reajqi3-0" />
        <mxCell id="RKNZrb3-dkO0KXYi3PZI-0" value="&lt;font style=&quot;font-size: 10px;&quot;&gt;Button 1&lt;/font&gt;" style="whiteSpace=wrap;html=1;rounded=0;shadow=0;labelBackgroundColor=none;strokeWidth=1;fontFamily=Verdana;fontSize=10;align=center;comic=1;verticalAlign=middle;" parent="lA4nqWK-BkJNwYqBplnw-0" vertex="1">
          <mxGeometry x="708" y="415.44" width="87.78" height="31.56" as="geometry" />
        </mxCell>
        <mxCell id="RKNZrb3-dkO0KXYi3PZI-7" value="&lt;font style=&quot;font-size: 14px;&quot;&gt;&lt;font style=&quot;font-size: 14px;&quot;&gt;Lorem ipsum dolor sit amet, consectetur adipisicing elit, sed do eiusmod tempor incididunt ut labore et dolore magna aliqua. Ut enim ad minim veniam, quis nostrud exercitation ullamco laboris nisi ut aliquip ex ea commodo consequat.&amp;nbsp;&lt;/font&gt;&lt;/font&gt;" style="text;spacingTop=-5;whiteSpace=wrap;html=1;align=left;fontSize=14;fontFamily=Helvetica;fillColor=none;strokeColor=default;comic=1;strokeWidth=1;fontColor=default;" parent="lA4nqWK-BkJNwYqBplnw-0" vertex="1">
          <mxGeometry x="708" y="260" width="282" height="140" as="geometry" />
        </mxCell>
        <mxCell id="A6Pw0vDJkDYMDs2gnLuy-0" value="TEXT" style="text;html=1;align=center;verticalAlign=middle;resizable=0;points=[];autosize=1;strokeColor=none;fillColor=none;fontSize=18;" vertex="1" parent="lA4nqWK-BkJNwYqBplnw-0">
          <mxGeometry x="701.61" y="110" width="70" height="40" as="geometry" />
        </mxCell>
        <mxCell id="A6Pw0vDJkDYMDs2gnLuy-1" value="TEXT" style="rounded=1;whiteSpace=wrap;html=1;comic=1;align=left;" vertex="1" parent="lA4nqWK-BkJNwYqBplnw-0">
          <mxGeometry x="708" y="160" width="284.44" height="40" as="geometry" />
        </mxCell>
        <mxCell id="RKNZrb3-dkO0KXYi3PZI-3" value="" style="verticalLabelPosition=bottom;shadow=0;dashed=0;align=center;html=1;verticalAlign=top;strokeWidth=1;shape=mxgraph.mockup.graphics.simpleIcon;strokeColor=#999999;comic=1;" parent="lA4nqWK-BkJNwYqBplnw-0" vertex="1">
          <mxGeometry x="708" y="211.16" width="32.17" height="36.69" as="geometry" />
        </mxCell>
        <mxCell id="A6Pw0vDJkDYMDs2gnLuy-3" value="DATE" style="rounded=1;whiteSpace=wrap;html=1;comic=1;align=left;" vertex="1" parent="lA4nqWK-BkJNwYqBplnw-0">
          <mxGeometry x="750" y="210" width="240" height="40" as="geometry" />
        </mxCell>
      </root>
    </mxGraphModel>
  </diagram>
  <diagram name="desktop-adicionar-todo" id="_j8hyA-kndimlRPLIdtb">
    <mxGraphModel dx="2868" dy="1884" grid="1" gridSize="10" guides="1" tooltips="1" connect="1" arrows="1" fold="1" page="1" pageScale="1" pageWidth="1600" pageHeight="900" background="none" math="0" shadow="0">
      <root>
        <mxCell id="15DtUyI71nfreLbgptS7-0" />
        <mxCell id="15DtUyI71nfreLbgptS7-1" style="locked=1;" parent="15DtUyI71nfreLbgptS7-0" />
        <mxCell id="15DtUyI71nfreLbgptS7-2" value="Header" style="locked=1;" parent="15DtUyI71nfreLbgptS7-0" />
        <mxCell id="15DtUyI71nfreLbgptS7-3" value="LOGO" style="whiteSpace=wrap;html=1;rounded=0;shadow=0;labelBackgroundColor=none;strokeWidth=1;fontFamily=Verdana;fontSize=28;align=center;comic=1;" parent="15DtUyI71nfreLbgptS7-2" vertex="1">
          <mxGeometry x="30" y="20" width="190" height="50" as="geometry" />
        </mxCell>
        <mxCell id="15DtUyI71nfreLbgptS7-4" value="Menu 1" style="text;html=1;points=[];align=left;verticalAlign=top;spacingTop=-4;fontSize=14;fontFamily=Verdana" parent="15DtUyI71nfreLbgptS7-2" vertex="1">
          <mxGeometry x="1290" y="35" width="60" height="20" as="geometry" />
        </mxCell>
        <mxCell id="15DtUyI71nfreLbgptS7-5" value="Menu 2" style="text;html=1;points=[];align=left;verticalAlign=top;spacingTop=-4;fontSize=14;fontFamily=Verdana" parent="15DtUyI71nfreLbgptS7-2" vertex="1">
          <mxGeometry x="1370" y="35" width="60" height="20" as="geometry" />
        </mxCell>
        <mxCell id="15DtUyI71nfreLbgptS7-6" value="Menu 3" style="text;html=1;points=[];align=left;verticalAlign=top;spacingTop=-4;fontSize=14;fontFamily=Verdana" parent="15DtUyI71nfreLbgptS7-2" vertex="1">
          <mxGeometry x="1440" y="35" width="60" height="20" as="geometry" />
        </mxCell>
        <mxCell id="15DtUyI71nfreLbgptS7-7" value="Menu 4" style="text;html=1;points=[];align=left;verticalAlign=top;spacingTop=-4;fontSize=14;fontFamily=Verdana" parent="15DtUyI71nfreLbgptS7-2" vertex="1">
          <mxGeometry x="1510" y="35" width="60" height="20" as="geometry" />
        </mxCell>
        <mxCell id="15DtUyI71nfreLbgptS7-8" value="" style="line;strokeWidth=1;html=1;rounded=0;shadow=0;labelBackgroundColor=none;fillColor=none;fontFamily=Verdana;fontSize=14;fontColor=#000000;align=center;comic=1;" parent="15DtUyI71nfreLbgptS7-2" vertex="1">
          <mxGeometry x="30" y="63" width="1540" height="50" as="geometry" />
        </mxCell>
        <mxCell id="15DtUyI71nfreLbgptS7-12" value="Content" style="locked=1;" parent="15DtUyI71nfreLbgptS7-0" />
        <mxCell id="L7yXOEVTZvPsYCJ4F9X1-0" value="&lt;font style=&quot;font-size: 20px;&quot;&gt;Button 1&lt;/font&gt;" style="whiteSpace=wrap;html=1;rounded=0;shadow=0;labelBackgroundColor=none;strokeWidth=1;fontFamily=Verdana;fontSize=20;align=center;comic=1;verticalAlign=middle;" parent="15DtUyI71nfreLbgptS7-12" vertex="1">
          <mxGeometry x="498" y="594" width="175" height="50" as="geometry" />
        </mxCell>
        <mxCell id="L7yXOEVTZvPsYCJ4F9X1-7" value="&lt;font style=&quot;font-size: 14px;&quot;&gt;&lt;font style=&quot;font-size: 14px;&quot;&gt;Lorem ipsum dolor sit amet, consectetur adipisicing elit, sed do eiusmod tempor incididunt ut labore et dolore magna aliqua. Ut enim ad minim veniam, quis nostrud exercitation ullamco laboris nisi ut aliquip ex ea commodo consequat. Duis aute irure dolor in reprehenderit in voluptate velit esse cillum dolore eu fugiat nulla pariatur. Excepteur sint occaecat cupidatat non proident, sunt in culpa qui officia deserunt mollit anim id est laborum.&amp;nbsp;Excepteur sint occaecat cupidatat non proident, sunt in culpa qui officia deserunt mollit anim id est laborum.&lt;br style=&quot;font-size: 14px;&quot;&gt;&lt;/font&gt;&lt;span style=&quot;font-size: 14px;&quot;&gt;Sed ut perspiciatis unde omnis iste natus error sit voluptatem accusantium doloremque laudantium, totam rem aperiam, eaque ipsa quae ab illo inventore veritatis et quasi architecto beatae vitae dicta sunt explicabo.&lt;/span&gt;&lt;/font&gt;" style="text;spacingTop=-5;whiteSpace=wrap;html=1;align=left;fontSize=14;fontFamily=Helvetica;fillColor=none;strokeColor=default;comic=1;strokeWidth=1;fontColor=default;" parent="15DtUyI71nfreLbgptS7-12" vertex="1">
          <mxGeometry x="500.5" y="424" width="607.5" height="160" as="geometry" />
        </mxCell>
        <mxCell id="J5yjUrD-B8JPivTEKbjX-2" value="TEXT" style="text;html=1;align=center;verticalAlign=middle;resizable=0;points=[];autosize=1;strokeColor=none;fillColor=none;fontSize=18;" vertex="1" parent="15DtUyI71nfreLbgptS7-12">
          <mxGeometry x="493" y="256" width="70" height="40" as="geometry" />
        </mxCell>
        <mxCell id="J5yjUrD-B8JPivTEKbjX-3" value="TEXT" style="rounded=1;whiteSpace=wrap;html=1;comic=1;align=left;fontSize=17;" vertex="1" parent="15DtUyI71nfreLbgptS7-12">
          <mxGeometry x="499.39" y="306" width="603.61" height="40" as="geometry" />
        </mxCell>
        <mxCell id="J5yjUrD-B8JPivTEKbjX-4" value="" style="verticalLabelPosition=bottom;shadow=0;dashed=0;align=center;html=1;verticalAlign=top;strokeWidth=1;shape=mxgraph.mockup.graphics.simpleIcon;strokeColor=#999999;comic=1;" vertex="1" parent="15DtUyI71nfreLbgptS7-12">
          <mxGeometry x="499.39" y="365.15999999999997" width="32.17" height="36.69" as="geometry" />
        </mxCell>
        <mxCell id="J5yjUrD-B8JPivTEKbjX-5" value="DATE" style="rounded=1;whiteSpace=wrap;html=1;comic=1;align=left;" vertex="1" parent="15DtUyI71nfreLbgptS7-12">
          <mxGeometry x="541.39" y="364" width="561.61" height="40" as="geometry" />
        </mxCell>
      </root>
    </mxGraphModel>
  </diagram>
  <diagram name="mobile-edit-todo" id="BsA6AuFYedyqFgPDJT5j">
    <mxGraphModel dx="754" dy="942" grid="1" gridSize="10" guides="1" tooltips="1" connect="1" arrows="1" fold="1" page="1" pageScale="1" pageWidth="340" pageHeight="480" background="none" math="0" shadow="0">
      <root>
        <mxCell id="IxyZFukm3zhGJzMToGcJ-0" />
        <mxCell id="IxyZFukm3zhGJzMToGcJ-1" style="locked=1;" parent="IxyZFukm3zhGJzMToGcJ-0" />
        <mxCell id="IxyZFukm3zhGJzMToGcJ-2" value="Header" style="locked=1;" parent="IxyZFukm3zhGJzMToGcJ-0" />
        <mxCell id="IxyZFukm3zhGJzMToGcJ-3" value="LOGO" style="whiteSpace=wrap;html=1;rounded=0;shadow=0;labelBackgroundColor=none;strokeWidth=1;fontFamily=Verdana;fontSize=28;align=center;comic=1;" parent="IxyZFukm3zhGJzMToGcJ-2" vertex="1">
          <mxGeometry x="690" y="10" width="190" height="50" as="geometry" />
        </mxCell>
        <mxCell id="IxyZFukm3zhGJzMToGcJ-4" value="" style="line;strokeWidth=1;html=1;rounded=0;shadow=0;labelBackgroundColor=none;fillColor=none;fontFamily=Verdana;fontSize=14;fontColor=#000000;align=center;comic=1;" parent="IxyZFukm3zhGJzMToGcJ-2" vertex="1">
          <mxGeometry x="680" y="63" width="340" height="50" as="geometry" />
        </mxCell>
        <mxCell id="IxyZFukm3zhGJzMToGcJ-7" value="" style="editableCssRules=path;shape=image;aspect=fixed;image=data:image/svg+xml,PHN2ZyB4bWxucz0iaHR0cDovL3d3dy53My5vcmcvMjAwMC9zdmciIHZpZXdCb3g9IjAgMCA0NDggNTEyIj48IS0tISBGb250IEF3ZXNvbWUgRnJlZSA2LjEuMSBieSBAZm9udGF3ZXNvbWUgLSBodHRwczovL2ZvbnRhd2Vzb21lLmNvbSBMaWNlbnNlIC0gaHR0cHM6Ly9mb250YXdlc29tZS5jb20vbGljZW5zZS9mcmVlIChJY29uczogQ0MgQlkgNC4wLCBGb250czogU0lMIE9GTCAxLjEsIENvZGU6IE1JVCBMaWNlbnNlKSBDb3B5cmlnaHQgMjAyMiBGb250aWNvbnMsIEluYy4gLS0+PHN0eWxlIHR5cGU9InRleHQvY3NzIj5wYXRoIHsgZmlsbDogcmdiKDI2LCAyNiwgMjYpOyB9IDwvc3R5bGU+PHBhdGggZD0iTTAgOTZDMCA3OC4zMyAxNC4zMyA2NCAzMiA2NEg0MTZDNDMzLjcgNjQgNDQ4IDc4LjMzIDQ0OCA5NkM0NDggMTEzLjcgNDMzLjcgMTI4IDQxNiAxMjhIMzJDMTQuMzMgMTI4IDAgMTEzLjcgMCA5NnpNMCAyNTZDMCAyMzguMyAxNC4zMyAyMjQgMzIgMjI0SDQxNkM0MzMuNyAyMjQgNDQ4IDIzOC4zIDQ0OCAyNTZDNDQ4IDI3My43IDQzMy43IDI4OCA0MTYgMjg4SDMyQzE0LjMzIDI4OCAwIDI3My43IDAgMjU2ek00MTYgNDQ4SDMyQzE0LjMzIDQ0OCAwIDQzMy43IDAgNDE2QzAgMzk4LjMgMTQuMzMgMzg0IDMyIDM4NEg0MTZDNDMzLjcgMzg0IDQ0OCAzOTguMyA0NDggNDE2QzQ0OCA0MzMuNyA0MzMuNyA0NDggNDE2IDQ0OHoiLz48L3N2Zz4=;connectable=0;movable=1;verticalLabelPosition=bottom;resizable=1;rotatable=0;cloneable=0;deletable=1;recursiveResize=0;imageBackground=none;verticalAlign=top;shadow=0;dashed=0;comic=1;strokeColor=default;strokeWidth=1;align=left;spacingLeft=3;fontFamily=Helvetica;fontSize=17;fontColor=#666666;fillColor=default;" parent="IxyZFukm3zhGJzMToGcJ-2" vertex="1">
          <mxGeometry x="950" y="10" width="53" height="53" as="geometry" />
        </mxCell>
        <mxCell id="IxyZFukm3zhGJzMToGcJ-8" value="Content" style="locked=1;" parent="IxyZFukm3zhGJzMToGcJ-0" />
        <mxCell id="YjyeCmJr_nYir7lTSWaw-0" value="&lt;font style=&quot;font-size: 10px;&quot;&gt;Button 1&lt;/font&gt;" style="whiteSpace=wrap;html=1;rounded=0;shadow=0;labelBackgroundColor=none;strokeWidth=1;fontFamily=Verdana;fontSize=10;align=center;comic=1;verticalAlign=middle;" vertex="1" parent="IxyZFukm3zhGJzMToGcJ-8">
          <mxGeometry x="711.39" y="415.44" width="87.78" height="31.56" as="geometry" />
        </mxCell>
        <mxCell id="YjyeCmJr_nYir7lTSWaw-1" value="&lt;font style=&quot;font-size: 14px;&quot;&gt;&lt;font style=&quot;font-size: 14px;&quot;&gt;Lorem ipsum dolor sit amet, consectetur adipisicing elit, sed do eiusmod tempor incididunt ut labore et dolore magna aliqua. Ut enim ad minim veniam, quis nostrud exercitation ullamco laboris nisi ut aliquip ex ea commodo consequat.&amp;nbsp;&lt;/font&gt;&lt;/font&gt;" style="text;spacingTop=-5;whiteSpace=wrap;html=1;align=left;fontSize=14;fontFamily=Helvetica;fillColor=none;strokeColor=default;comic=1;strokeWidth=1;fontColor=default;" vertex="1" parent="IxyZFukm3zhGJzMToGcJ-8">
          <mxGeometry x="711.39" y="260" width="282" height="140" as="geometry" />
        </mxCell>
        <mxCell id="YjyeCmJr_nYir7lTSWaw-2" value="TEXT" style="text;html=1;align=center;verticalAlign=middle;resizable=0;points=[];autosize=1;strokeColor=none;fillColor=none;fontSize=18;" vertex="1" parent="IxyZFukm3zhGJzMToGcJ-8">
          <mxGeometry x="705" y="110" width="70" height="40" as="geometry" />
        </mxCell>
        <mxCell id="YjyeCmJr_nYir7lTSWaw-3" value="TEXT" style="rounded=1;whiteSpace=wrap;html=1;comic=1;align=left;" vertex="1" parent="IxyZFukm3zhGJzMToGcJ-8">
          <mxGeometry x="711.39" y="160" width="284.44" height="40" as="geometry" />
        </mxCell>
        <mxCell id="YjyeCmJr_nYir7lTSWaw-4" value="" style="verticalLabelPosition=bottom;shadow=0;dashed=0;align=center;html=1;verticalAlign=top;strokeWidth=1;shape=mxgraph.mockup.graphics.simpleIcon;strokeColor=#999999;comic=1;" vertex="1" parent="IxyZFukm3zhGJzMToGcJ-8">
          <mxGeometry x="711.39" y="211.16" width="32.17" height="36.69" as="geometry" />
        </mxCell>
        <mxCell id="YjyeCmJr_nYir7lTSWaw-5" value="DATE" style="rounded=1;whiteSpace=wrap;html=1;comic=1;align=left;" vertex="1" parent="IxyZFukm3zhGJzMToGcJ-8">
          <mxGeometry x="753.39" y="210" width="240" height="40" as="geometry" />
        </mxCell>
      </root>
    </mxGraphModel>
  </diagram>
  <diagram name="desktop-edit-todo" id="0jAjor-aGZYEeFLZiUOw">
    <mxGraphModel dx="1912" dy="1256" grid="1" gridSize="10" guides="1" tooltips="1" connect="1" arrows="1" fold="1" page="1" pageScale="1" pageWidth="1600" pageHeight="900" background="none" math="0" shadow="0">
      <root>
        <mxCell id="6_EwgdKnPHdR83NdZkqo-0" />
        <mxCell id="6_EwgdKnPHdR83NdZkqo-1" style="locked=1;" parent="6_EwgdKnPHdR83NdZkqo-0" />
        <mxCell id="6_EwgdKnPHdR83NdZkqo-2" value="Header" style="locked=1;" parent="6_EwgdKnPHdR83NdZkqo-0" />
        <mxCell id="6_EwgdKnPHdR83NdZkqo-3" value="LOGO" style="whiteSpace=wrap;html=1;rounded=0;shadow=0;labelBackgroundColor=none;strokeWidth=1;fontFamily=Verdana;fontSize=28;align=center;comic=1;" parent="6_EwgdKnPHdR83NdZkqo-2" vertex="1">
          <mxGeometry x="30" y="20" width="190" height="50" as="geometry" />
        </mxCell>
        <mxCell id="6_EwgdKnPHdR83NdZkqo-4" value="Menu 1" style="text;html=1;points=[];align=left;verticalAlign=top;spacingTop=-4;fontSize=14;fontFamily=Verdana" parent="6_EwgdKnPHdR83NdZkqo-2" vertex="1">
          <mxGeometry x="1290" y="35" width="60" height="20" as="geometry" />
        </mxCell>
        <mxCell id="6_EwgdKnPHdR83NdZkqo-5" value="Menu 2" style="text;html=1;points=[];align=left;verticalAlign=top;spacingTop=-4;fontSize=14;fontFamily=Verdana" parent="6_EwgdKnPHdR83NdZkqo-2" vertex="1">
          <mxGeometry x="1370" y="35" width="60" height="20" as="geometry" />
        </mxCell>
        <mxCell id="6_EwgdKnPHdR83NdZkqo-6" value="Menu 3" style="text;html=1;points=[];align=left;verticalAlign=top;spacingTop=-4;fontSize=14;fontFamily=Verdana" parent="6_EwgdKnPHdR83NdZkqo-2" vertex="1">
          <mxGeometry x="1440" y="35" width="60" height="20" as="geometry" />
        </mxCell>
        <mxCell id="6_EwgdKnPHdR83NdZkqo-7" value="Menu 4" style="text;html=1;points=[];align=left;verticalAlign=top;spacingTop=-4;fontSize=14;fontFamily=Verdana" parent="6_EwgdKnPHdR83NdZkqo-2" vertex="1">
          <mxGeometry x="1510" y="35" width="60" height="20" as="geometry" />
        </mxCell>
        <mxCell id="6_EwgdKnPHdR83NdZkqo-8" value="" style="line;strokeWidth=1;html=1;rounded=0;shadow=0;labelBackgroundColor=none;fillColor=none;fontFamily=Verdana;fontSize=14;fontColor=#000000;align=center;comic=1;" parent="6_EwgdKnPHdR83NdZkqo-2" vertex="1">
          <mxGeometry x="30" y="63" width="1540" height="50" as="geometry" />
        </mxCell>
        <mxCell id="6_EwgdKnPHdR83NdZkqo-12" value="Content" style="locked=1;" parent="6_EwgdKnPHdR83NdZkqo-0" />
        <mxCell id="KMQ6LXov6RxuWhGyYmoh-0" value="&lt;font style=&quot;font-size: 20px;&quot;&gt;Button 1&lt;/font&gt;" style="whiteSpace=wrap;html=1;rounded=0;shadow=0;labelBackgroundColor=none;strokeWidth=1;fontFamily=Verdana;fontSize=20;align=center;comic=1;verticalAlign=middle;" vertex="1" parent="6_EwgdKnPHdR83NdZkqo-12">
          <mxGeometry x="498" y="594" width="175" height="50" as="geometry" />
        </mxCell>
        <mxCell id="KMQ6LXov6RxuWhGyYmoh-1" value="&lt;font style=&quot;font-size: 14px;&quot;&gt;&lt;font style=&quot;font-size: 14px;&quot;&gt;Lorem ipsum dolor sit amet, consectetur adipisicing elit, sed do eiusmod tempor incididunt ut labore et dolore magna aliqua. Ut enim ad minim veniam, quis nostrud exercitation ullamco laboris nisi ut aliquip ex ea commodo consequat. Duis aute irure dolor in reprehenderit in voluptate velit esse cillum dolore eu fugiat nulla pariatur. Excepteur sint occaecat cupidatat non proident, sunt in culpa qui officia deserunt mollit anim id est laborum.&amp;nbsp;Excepteur sint occaecat cupidatat non proident, sunt in culpa qui officia deserunt mollit anim id est laborum.&lt;br style=&quot;font-size: 14px;&quot;&gt;&lt;/font&gt;&lt;span style=&quot;font-size: 14px;&quot;&gt;Sed ut perspiciatis unde omnis iste natus error sit voluptatem accusantium doloremque laudantium, totam rem aperiam, eaque ipsa quae ab illo inventore veritatis et quasi architecto beatae vitae dicta sunt explicabo.&lt;/span&gt;&lt;/font&gt;" style="text;spacingTop=-5;whiteSpace=wrap;html=1;align=left;fontSize=14;fontFamily=Helvetica;fillColor=none;strokeColor=default;comic=1;strokeWidth=1;fontColor=default;" vertex="1" parent="6_EwgdKnPHdR83NdZkqo-12">
          <mxGeometry x="500.5" y="424" width="607.5" height="160" as="geometry" />
        </mxCell>
        <mxCell id="KMQ6LXov6RxuWhGyYmoh-2" value="TEXT" style="text;html=1;align=center;verticalAlign=middle;resizable=0;points=[];autosize=1;strokeColor=none;fillColor=none;fontSize=18;" vertex="1" parent="6_EwgdKnPHdR83NdZkqo-12">
          <mxGeometry x="493" y="256" width="70" height="40" as="geometry" />
        </mxCell>
        <mxCell id="KMQ6LXov6RxuWhGyYmoh-3" value="TEXT" style="rounded=1;whiteSpace=wrap;html=1;comic=1;fontSize=17;align=left;" vertex="1" parent="6_EwgdKnPHdR83NdZkqo-12">
          <mxGeometry x="499.39" y="306" width="603.61" height="40" as="geometry" />
        </mxCell>
        <mxCell id="KMQ6LXov6RxuWhGyYmoh-4" value="" style="verticalLabelPosition=bottom;shadow=0;dashed=0;align=center;html=1;verticalAlign=top;strokeWidth=1;shape=mxgraph.mockup.graphics.simpleIcon;strokeColor=#999999;comic=1;" vertex="1" parent="6_EwgdKnPHdR83NdZkqo-12">
          <mxGeometry x="499.39" y="365.15999999999997" width="32.17" height="36.69" as="geometry" />
        </mxCell>
        <mxCell id="KMQ6LXov6RxuWhGyYmoh-5" value="DATE" style="rounded=1;whiteSpace=wrap;html=1;comic=1;align=left;" vertex="1" parent="6_EwgdKnPHdR83NdZkqo-12">
          <mxGeometry x="541.39" y="364" width="561.61" height="40" as="geometry" />
        </mxCell>
      </root>
    </mxGraphModel>
  </diagram>
  <diagram name="mobile-about" id="Yiazo_JoFUsaYGlLK_VB">
    <mxGraphModel dx="754" dy="942" grid="1" gridSize="10" guides="1" tooltips="1" connect="1" arrows="1" fold="1" page="1" pageScale="1" pageWidth="340" pageHeight="480" background="none" math="0" shadow="0">
      <root>
        <mxCell id="izOlxlyPjDSlhkxPn7Ld-0" />
        <mxCell id="izOlxlyPjDSlhkxPn7Ld-1" style="locked=1;" parent="izOlxlyPjDSlhkxPn7Ld-0" />
        <mxCell id="izOlxlyPjDSlhkxPn7Ld-2" value="Header" style="locked=1;" parent="izOlxlyPjDSlhkxPn7Ld-0" />
        <mxCell id="izOlxlyPjDSlhkxPn7Ld-3" value="LOGO" style="whiteSpace=wrap;html=1;rounded=0;shadow=0;labelBackgroundColor=none;strokeWidth=1;fontFamily=Verdana;fontSize=28;align=center;comic=1;" parent="izOlxlyPjDSlhkxPn7Ld-2" vertex="1">
          <mxGeometry x="690" y="10" width="190" height="50" as="geometry" />
        </mxCell>
        <mxCell id="izOlxlyPjDSlhkxPn7Ld-4" value="" style="line;strokeWidth=1;html=1;rounded=0;shadow=0;labelBackgroundColor=none;fillColor=none;fontFamily=Verdana;fontSize=14;fontColor=#000000;align=center;comic=1;" parent="izOlxlyPjDSlhkxPn7Ld-2" vertex="1">
          <mxGeometry x="680" y="63" width="340" height="50" as="geometry" />
        </mxCell>
        <mxCell id="izOlxlyPjDSlhkxPn7Ld-7" value="" style="editableCssRules=path;shape=image;aspect=fixed;image=data:image/svg+xml,PHN2ZyB4bWxucz0iaHR0cDovL3d3dy53My5vcmcvMjAwMC9zdmciIHZpZXdCb3g9IjAgMCA0NDggNTEyIj48IS0tISBGb250IEF3ZXNvbWUgRnJlZSA2LjEuMSBieSBAZm9udGF3ZXNvbWUgLSBodHRwczovL2ZvbnRhd2Vzb21lLmNvbSBMaWNlbnNlIC0gaHR0cHM6Ly9mb250YXdlc29tZS5jb20vbGljZW5zZS9mcmVlIChJY29uczogQ0MgQlkgNC4wLCBGb250czogU0lMIE9GTCAxLjEsIENvZGU6IE1JVCBMaWNlbnNlKSBDb3B5cmlnaHQgMjAyMiBGb250aWNvbnMsIEluYy4gLS0+PHN0eWxlIHR5cGU9InRleHQvY3NzIj5wYXRoIHsgZmlsbDogcmdiKDI2LCAyNiwgMjYpOyB9IDwvc3R5bGU+PHBhdGggZD0iTTAgOTZDMCA3OC4zMyAxNC4zMyA2NCAzMiA2NEg0MTZDNDMzLjcgNjQgNDQ4IDc4LjMzIDQ0OCA5NkM0NDggMTEzLjcgNDMzLjcgMTI4IDQxNiAxMjhIMzJDMTQuMzMgMTI4IDAgMTEzLjcgMCA5NnpNMCAyNTZDMCAyMzguMyAxNC4zMyAyMjQgMzIgMjI0SDQxNkM0MzMuNyAyMjQgNDQ4IDIzOC4zIDQ0OCAyNTZDNDQ4IDI3My43IDQzMy43IDI4OCA0MTYgMjg4SDMyQzE0LjMzIDI4OCAwIDI3My43IDAgMjU2ek00MTYgNDQ4SDMyQzE0LjMzIDQ0OCAwIDQzMy43IDAgNDE2QzAgMzk4LjMgMTQuMzMgMzg0IDMyIDM4NEg0MTZDNDMzLjcgMzg0IDQ0OCAzOTguMyA0NDggNDE2QzQ0OCA0MzMuNyA0MzMuNyA0NDggNDE2IDQ0OHoiLz48L3N2Zz4=;connectable=0;movable=1;verticalLabelPosition=bottom;resizable=1;rotatable=0;cloneable=0;deletable=1;recursiveResize=0;imageBackground=none;verticalAlign=top;shadow=0;dashed=0;comic=1;strokeColor=default;strokeWidth=1;align=left;spacingLeft=3;fontFamily=Helvetica;fontSize=17;fontColor=#666666;fillColor=default;" parent="izOlxlyPjDSlhkxPn7Ld-2" vertex="1">
          <mxGeometry x="950" y="10" width="53" height="53" as="geometry" />
        </mxCell>
        <mxCell id="izOlxlyPjDSlhkxPn7Ld-8" value="Content" style="" parent="izOlxlyPjDSlhkxPn7Ld-0" />
        <mxCell id="jjiGf4HctpK_C_4LQagF-0" value="" style="rounded=1;whiteSpace=wrap;html=1;comic=1;arcSize=2;" vertex="1" parent="izOlxlyPjDSlhkxPn7Ld-8">
          <mxGeometry x="690" y="100" width="320" height="360" as="geometry" />
        </mxCell>
        <mxCell id="jjiGf4HctpK_C_4LQagF-1" value="Text" style="text;html=1;align=center;verticalAlign=middle;whiteSpace=wrap;rounded=0;fontSize=29;" vertex="1" parent="izOlxlyPjDSlhkxPn7Ld-8">
          <mxGeometry x="820" y="110" width="60" height="30" as="geometry" />
        </mxCell>
        <mxCell id="gZYzVCau0wTNIaa6imKy-0" value="" style="verticalLabelPosition=bottom;shadow=0;dashed=0;align=center;html=1;verticalAlign=top;strokeWidth=1;shape=mxgraph.mockup.graphics.simpleIcon;strokeColor=#999999;" vertex="1" parent="izOlxlyPjDSlhkxPn7Ld-8">
          <mxGeometry x="833" y="150" width="35" height="30" as="geometry" />
        </mxCell>
        <mxCell id="gZYzVCau0wTNIaa6imKy-1" value="&lt;p&gt;Lorem ipsum dolor sit amet, consectetur adipisicing elit, sed do eiusmod tempor incididunt ut labore et dolore magna aliqua.&lt;/p&gt;" style="text;html=1;whiteSpace=wrap;overflow=hidden;rounded=0;" vertex="1" parent="izOlxlyPjDSlhkxPn7Ld-8">
          <mxGeometry x="710" y="175" width="280" height="120" as="geometry" />
        </mxCell>
        <mxCell id="gZYzVCau0wTNIaa6imKy-2" value="&lt;h1 style=&quot;margin-top: 0px;&quot;&gt;Heading&lt;/h1&gt;&lt;p&gt;Lorem ipsum dolor sit amet, consectetur adipisicing elit, sed do eiusmod tempor incididunt ut labore et dolore magna aliqua.&lt;/p&gt;" style="text;html=1;whiteSpace=wrap;overflow=hidden;rounded=0;fontSize=9;" vertex="1" parent="izOlxlyPjDSlhkxPn7Ld-8">
          <mxGeometry x="710" y="241" width="260" height="70" as="geometry" />
        </mxCell>
        <mxCell id="gZYzVCau0wTNIaa6imKy-3" value="&lt;h1 style=&quot;margin-top: 0px;&quot;&gt;Heading&lt;/h1&gt;&lt;p&gt;Lorem ipsum dolor sit amet, consectetur adipisicing elit, sed do eiusmod tempor incididunt ut labore et dolore magna aliqua.&lt;/p&gt;" style="text;html=1;whiteSpace=wrap;overflow=hidden;rounded=0;fontSize=9;" vertex="1" parent="izOlxlyPjDSlhkxPn7Ld-8">
          <mxGeometry x="710" y="311" width="260" height="70" as="geometry" />
        </mxCell>
        <mxCell id="gZYzVCau0wTNIaa6imKy-4" value="&lt;h1 style=&quot;margin-top: 0px;&quot;&gt;Heading&lt;/h1&gt;&lt;p&gt;Lorem ipsum dolor sit amet, consectetur adipisicing elit, sed do eiusmod tempor incididunt ut labore et dolore magna aliqua.&lt;/p&gt;" style="text;html=1;whiteSpace=wrap;overflow=hidden;rounded=0;fontSize=9;" vertex="1" parent="izOlxlyPjDSlhkxPn7Ld-8">
          <mxGeometry x="710" y="378" width="260" height="70" as="geometry" />
        </mxCell>
      </root>
    </mxGraphModel>
  </diagram>
  <diagram name="desktop-about" id="4Y4T_npYmeDbd8_kjEeU">
    <mxGraphModel dx="2607" dy="1713" grid="1" gridSize="10" guides="1" tooltips="1" connect="1" arrows="1" fold="1" page="1" pageScale="1" pageWidth="1600" pageHeight="900" background="none" math="0" shadow="0">
      <root>
        <mxCell id="Cx_b--HRgNTYqLrXlxKZ-0" />
        <mxCell id="Cx_b--HRgNTYqLrXlxKZ-1" style="locked=1;" parent="Cx_b--HRgNTYqLrXlxKZ-0" />
        <mxCell id="Cx_b--HRgNTYqLrXlxKZ-2" value="Header" style="locked=1;" parent="Cx_b--HRgNTYqLrXlxKZ-0" />
        <mxCell id="Cx_b--HRgNTYqLrXlxKZ-3" value="LOGO" style="whiteSpace=wrap;html=1;rounded=0;shadow=0;labelBackgroundColor=none;strokeWidth=1;fontFamily=Verdana;fontSize=28;align=center;comic=1;" parent="Cx_b--HRgNTYqLrXlxKZ-2" vertex="1">
          <mxGeometry x="30" y="20" width="190" height="50" as="geometry" />
        </mxCell>
        <mxCell id="Cx_b--HRgNTYqLrXlxKZ-4" value="Menu 1" style="text;html=1;points=[];align=left;verticalAlign=top;spacingTop=-4;fontSize=14;fontFamily=Verdana" parent="Cx_b--HRgNTYqLrXlxKZ-2" vertex="1">
          <mxGeometry x="1290" y="35" width="60" height="20" as="geometry" />
        </mxCell>
        <mxCell id="Cx_b--HRgNTYqLrXlxKZ-5" value="Menu 2" style="text;html=1;points=[];align=left;verticalAlign=top;spacingTop=-4;fontSize=14;fontFamily=Verdana" parent="Cx_b--HRgNTYqLrXlxKZ-2" vertex="1">
          <mxGeometry x="1370" y="35" width="60" height="20" as="geometry" />
        </mxCell>
        <mxCell id="Cx_b--HRgNTYqLrXlxKZ-6" value="Menu 3" style="text;html=1;points=[];align=left;verticalAlign=top;spacingTop=-4;fontSize=14;fontFamily=Verdana" parent="Cx_b--HRgNTYqLrXlxKZ-2" vertex="1">
          <mxGeometry x="1440" y="35" width="60" height="20" as="geometry" />
        </mxCell>
        <mxCell id="Cx_b--HRgNTYqLrXlxKZ-7" value="Menu 4" style="text;html=1;points=[];align=left;verticalAlign=top;spacingTop=-4;fontSize=14;fontFamily=Verdana" parent="Cx_b--HRgNTYqLrXlxKZ-2" vertex="1">
          <mxGeometry x="1510" y="35" width="60" height="20" as="geometry" />
        </mxCell>
        <mxCell id="Cx_b--HRgNTYqLrXlxKZ-8" value="" style="line;strokeWidth=1;html=1;rounded=0;shadow=0;labelBackgroundColor=none;fillColor=none;fontFamily=Verdana;fontSize=14;fontColor=#000000;align=center;comic=1;" parent="Cx_b--HRgNTYqLrXlxKZ-2" vertex="1">
          <mxGeometry x="30" y="63" width="1540" height="50" as="geometry" />
        </mxCell>
        <mxCell id="Cx_b--HRgNTYqLrXlxKZ-12" value="Content" style="locked=1;" parent="Cx_b--HRgNTYqLrXlxKZ-0" />
        <mxCell id="EqrABYngldxTa24b7hXu-0" value="" style="rounded=1;whiteSpace=wrap;html=1;comic=1;arcSize=2;" vertex="1" parent="Cx_b--HRgNTYqLrXlxKZ-12">
          <mxGeometry x="490" y="180" width="620" height="540" as="geometry" />
        </mxCell>
        <mxCell id="EqrABYngldxTa24b7hXu-1" value="Text" style="text;html=1;align=center;verticalAlign=middle;whiteSpace=wrap;rounded=0;fontSize=29;" vertex="1" parent="Cx_b--HRgNTYqLrXlxKZ-12">
          <mxGeometry x="765" y="210" width="60" height="30" as="geometry" />
        </mxCell>
        <mxCell id="EqrABYngldxTa24b7hXu-2" value="" style="verticalLabelPosition=bottom;shadow=0;dashed=0;align=center;html=1;verticalAlign=top;strokeWidth=1;shape=mxgraph.mockup.graphics.simpleIcon;strokeColor=#999999;" vertex="1" parent="Cx_b--HRgNTYqLrXlxKZ-12">
          <mxGeometry x="778" y="250" width="35" height="30" as="geometry" />
        </mxCell>
        <mxCell id="EqrABYngldxTa24b7hXu-3" value="&lt;p&gt;Lorem ipsum dolor sit amet, consectetur adipisicing elit, sed do eiusmod tempor incididunt ut labore et dolore magna aliqua.&lt;/p&gt;" style="text;html=1;whiteSpace=wrap;overflow=hidden;rounded=0;" vertex="1" parent="Cx_b--HRgNTYqLrXlxKZ-12">
          <mxGeometry x="660" y="270" width="280" height="120" as="geometry" />
        </mxCell>
        <mxCell id="EqrABYngldxTa24b7hXu-4" value="&lt;h1 style=&quot;margin-top: 0px;&quot;&gt;Heading&lt;/h1&gt;&lt;p&gt;Lorem ipsum dolor sit amet, consectetur adipisicing elit, sed do eiusmod tempor incididunt ut labore et dolore magna aliqua.&lt;/p&gt;" style="text;html=1;whiteSpace=wrap;overflow=hidden;rounded=0;fontSize=9;" vertex="1" parent="Cx_b--HRgNTYqLrXlxKZ-12">
          <mxGeometry x="505" y="400" width="590" height="70" as="geometry" />
        </mxCell>
        <mxCell id="EqrABYngldxTa24b7hXu-5" value="&lt;h1 style=&quot;margin-top: 0px;&quot;&gt;Heading&lt;/h1&gt;&lt;p&gt;Lorem ipsum dolor sit amet, consectetur adipisicing elit, sed do eiusmod tempor incididunt ut labore et dolore magna aliqua.&lt;/p&gt;" style="text;html=1;whiteSpace=wrap;overflow=hidden;rounded=0;fontSize=9;" vertex="1" parent="Cx_b--HRgNTYqLrXlxKZ-12">
          <mxGeometry x="505" y="510" width="580" height="70" as="geometry" />
        </mxCell>
        <mxCell id="EqrABYngldxTa24b7hXu-6" value="&lt;h1 style=&quot;margin-top: 0px;&quot;&gt;Heading&lt;/h1&gt;&lt;p&gt;Lorem ipsum dolor sit amet, consectetur adipisicing elit, sed do eiusmod tempor incididunt ut labore et dolore magna aliqua.&lt;/p&gt;" style="text;html=1;whiteSpace=wrap;overflow=hidden;rounded=0;fontSize=9;" vertex="1" parent="Cx_b--HRgNTYqLrXlxKZ-12">
          <mxGeometry x="505" y="620" width="580" height="70" as="geometry" />
        </mxCell>
      </root>
    </mxGraphModel>
  </diagram>
  <diagram name="mobile-sign-in" id="7y0Y6e_P76QoWTCpZi73">
    <mxGraphModel dx="1572" dy="1256" grid="1" gridSize="10" guides="1" tooltips="1" connect="1" arrows="1" fold="1" page="1" pageScale="1" pageWidth="340" pageHeight="480" background="none" math="0" shadow="0">
      <root>
        <mxCell id="iGdKVgryugQ8pHFWM0---0" />
        <mxCell id="iGdKVgryugQ8pHFWM0---1" style="locked=1;" parent="iGdKVgryugQ8pHFWM0---0" />
        <mxCell id="iGdKVgryugQ8pHFWM0---6" value="Content" style="locked=1;" parent="iGdKVgryugQ8pHFWM0---0" />
        <mxCell id="Ho66oTw-B5c-LP8pNzZX-1" value="" style="whiteSpace=wrap;html=1;rounded=0;shadow=0;labelBackgroundColor=none;strokeWidth=1;fillColor=none;fontFamily=Verdana;fontSize=12;align=center;comic=1;" vertex="1" parent="iGdKVgryugQ8pHFWM0---6">
          <mxGeometry x="360" y="30" width="300" height="430" as="geometry" />
        </mxCell>
        <mxCell id="Ho66oTw-B5c-LP8pNzZX-0" value="HEADER" style="whiteSpace=wrap;html=1;rounded=0;shadow=0;labelBackgroundColor=none;strokeWidth=1;fillColor=none;fontFamily=Verdana;fontSize=12;align=center;comic=1;" vertex="1" parent="iGdKVgryugQ8pHFWM0---6">
          <mxGeometry x="400" y="60" width="230" height="90" as="geometry" />
        </mxCell>
        <mxCell id="Ho66oTw-B5c-LP8pNzZX-2" value="&lt;font style=&quot;font-size: 20px;&quot;&gt;Button 1&lt;/font&gt;" style="whiteSpace=wrap;html=1;rounded=0;shadow=0;labelBackgroundColor=none;strokeWidth=1;fontFamily=Verdana;fontSize=20;align=center;comic=1;verticalAlign=middle;" vertex="1" parent="iGdKVgryugQ8pHFWM0---6">
          <mxGeometry x="443" y="349" width="139.5" height="30" as="geometry" />
        </mxCell>
        <mxCell id="Ho66oTw-B5c-LP8pNzZX-3" value="&lt;div&gt;Text&lt;br&gt;&lt;/div&gt;" style="rounded=1;whiteSpace=wrap;html=1;comic=1;align=left;" vertex="1" parent="iGdKVgryugQ8pHFWM0---6">
          <mxGeometry x="380" y="190" width="260" height="50" as="geometry" />
        </mxCell>
        <mxCell id="Ho66oTw-B5c-LP8pNzZX-4" value="***********" style="rounded=1;whiteSpace=wrap;html=1;comic=1;align=left;" vertex="1" parent="iGdKVgryugQ8pHFWM0---6">
          <mxGeometry x="380" y="280" width="260" height="50" as="geometry" />
        </mxCell>
        <mxCell id="Ho66oTw-B5c-LP8pNzZX-5" value="Text" style="text;html=1;align=center;verticalAlign=middle;resizable=0;points=[];autosize=1;strokeColor=none;fillColor=none;" vertex="1" parent="iGdKVgryugQ8pHFWM0---6">
          <mxGeometry x="380" y="160" width="50" height="30" as="geometry" />
        </mxCell>
        <mxCell id="Ho66oTw-B5c-LP8pNzZX-6" value="Text" style="text;html=1;align=center;verticalAlign=middle;resizable=0;points=[];autosize=1;strokeColor=none;fillColor=none;" vertex="1" parent="iGdKVgryugQ8pHFWM0---6">
          <mxGeometry x="380" y="250" width="50" height="30" as="geometry" />
        </mxCell>
        <mxCell id="Ho66oTw-B5c-LP8pNzZX-7" value="Text" style="text;html=1;align=center;verticalAlign=middle;resizable=0;points=[];autosize=1;strokeColor=none;fillColor=none;" vertex="1" parent="iGdKVgryugQ8pHFWM0---6">
          <mxGeometry x="487.75" y="400" width="50" height="30" as="geometry" />
        </mxCell>
      </root>
    </mxGraphModel>
  </diagram>
  <diagram name="desktop-sign-in" id="e9K0uWX1rs1xLSMpqUT0">
    <mxGraphModel dx="2049" dy="1346" grid="1" gridSize="10" guides="1" tooltips="1" connect="1" arrows="1" fold="1" page="1" pageScale="1" pageWidth="1600" pageHeight="900" background="none" math="0" shadow="0">
      <root>
        <mxCell id="jjo0VNqTlgXzUu83DQo8-0" />
        <mxCell id="jjo0VNqTlgXzUu83DQo8-1" style="locked=1;" parent="jjo0VNqTlgXzUu83DQo8-0" />
        <mxCell id="jjo0VNqTlgXzUu83DQo8-12" value="Content" style="locked=1;" parent="jjo0VNqTlgXzUu83DQo8-0" />
        <mxCell id="x_5II49hd9YvYokySPAu-8" value="" style="whiteSpace=wrap;html=1;rounded=0;shadow=0;labelBackgroundColor=none;strokeWidth=1;fillColor=none;fontFamily=Verdana;fontSize=12;align=center;comic=1;" vertex="1" parent="jjo0VNqTlgXzUu83DQo8-12">
          <mxGeometry x="530" y="200" width="520" height="430" as="geometry" />
        </mxCell>
        <mxCell id="x_5II49hd9YvYokySPAu-7" value="HEADER" style="whiteSpace=wrap;html=1;rounded=0;shadow=0;labelBackgroundColor=none;strokeWidth=1;fillColor=none;fontFamily=Verdana;fontSize=12;align=center;comic=1;" vertex="1" parent="jjo0VNqTlgXzUu83DQo8-12">
          <mxGeometry x="565" y="230" width="470" height="90" as="geometry" />
        </mxCell>
        <mxCell id="x_5II49hd9YvYokySPAu-9" value="&lt;font style=&quot;font-size: 20px;&quot;&gt;Button 1&lt;/font&gt;" style="whiteSpace=wrap;html=1;rounded=0;shadow=0;labelBackgroundColor=none;strokeWidth=1;fontFamily=Verdana;fontSize=20;align=center;comic=1;verticalAlign=middle;" vertex="1" parent="jjo0VNqTlgXzUu83DQo8-12">
          <mxGeometry x="718" y="530" width="165" height="30" as="geometry" />
        </mxCell>
        <mxCell id="x_5II49hd9YvYokySPAu-10" value="Text" style="rounded=1;whiteSpace=wrap;html=1;comic=1;align=left;" vertex="1" parent="jjo0VNqTlgXzUu83DQo8-12">
          <mxGeometry x="560" y="360" width="480" height="50" as="geometry" />
        </mxCell>
        <mxCell id="x_5II49hd9YvYokySPAu-11" value="***********" style="rounded=1;whiteSpace=wrap;html=1;comic=1;align=left;" vertex="1" parent="jjo0VNqTlgXzUu83DQo8-12">
          <mxGeometry x="560" y="450" width="480" height="50" as="geometry" />
        </mxCell>
        <mxCell id="x_5II49hd9YvYokySPAu-12" value="Text" style="text;html=1;align=center;verticalAlign=middle;resizable=0;points=[];autosize=1;strokeColor=none;fillColor=none;" vertex="1" parent="jjo0VNqTlgXzUu83DQo8-12">
          <mxGeometry x="560" y="330" width="50" height="30" as="geometry" />
        </mxCell>
        <mxCell id="x_5II49hd9YvYokySPAu-13" value="Text" style="text;html=1;align=center;verticalAlign=middle;resizable=0;points=[];autosize=1;strokeColor=none;fillColor=none;" vertex="1" parent="jjo0VNqTlgXzUu83DQo8-12">
          <mxGeometry x="560" y="420" width="50" height="30" as="geometry" />
        </mxCell>
        <mxCell id="x_5II49hd9YvYokySPAu-14" value="Text" style="text;html=1;align=center;verticalAlign=middle;resizable=0;points=[];autosize=1;strokeColor=none;fillColor=none;" vertex="1" parent="jjo0VNqTlgXzUu83DQo8-12">
          <mxGeometry x="770.5" y="581" width="50" height="30" as="geometry" />
        </mxCell>
      </root>
    </mxGraphModel>
  </diagram>
  <diagram name="mobile-register" id="JjZ_L12jNKRMKcIedH8f">
    <mxGraphModel dx="1094" dy="942" grid="1" gridSize="10" guides="1" tooltips="1" connect="1" arrows="1" fold="1" page="1" pageScale="1" pageWidth="340" pageHeight="480" background="none" math="0" shadow="0">
      <root>
        <mxCell id="my-B4ti3C9QNr17qSUz4-0" />
        <mxCell id="my-B4ti3C9QNr17qSUz4-1" style="locked=1;" parent="my-B4ti3C9QNr17qSUz4-0" />
        <mxCell id="1MZnBSAuiF6gayV3EuST-0" value="Content" style="locked=1;" parent="my-B4ti3C9QNr17qSUz4-0" />
        <mxCell id="5rtwws6ky7I9tHWV7Qsg-0" value="" style="whiteSpace=wrap;html=1;rounded=0;shadow=0;labelBackgroundColor=none;strokeWidth=1;fillColor=none;fontFamily=Verdana;fontSize=12;align=center;comic=1;" vertex="1" parent="1MZnBSAuiF6gayV3EuST-0">
          <mxGeometry x="360" y="25" width="300" height="430" as="geometry" />
        </mxCell>
        <mxCell id="5rtwws6ky7I9tHWV7Qsg-1" value="HEADER" style="whiteSpace=wrap;html=1;rounded=0;shadow=0;labelBackgroundColor=none;strokeWidth=1;fillColor=none;fontFamily=Verdana;fontSize=12;align=center;comic=1;" vertex="1" parent="1MZnBSAuiF6gayV3EuST-0">
          <mxGeometry x="400" y="75" width="230" height="40" as="geometry" />
        </mxCell>
        <mxCell id="5rtwws6ky7I9tHWV7Qsg-2" value="&lt;font style=&quot;font-size: 20px;&quot;&gt;Button 1&lt;/font&gt;" style="whiteSpace=wrap;html=1;rounded=0;shadow=0;labelBackgroundColor=none;strokeWidth=1;fontFamily=Verdana;fontSize=20;align=center;comic=1;verticalAlign=middle;" vertex="1" parent="1MZnBSAuiF6gayV3EuST-0">
          <mxGeometry x="450" y="395" width="139.5" height="30" as="geometry" />
        </mxCell>
        <mxCell id="5rtwws6ky7I9tHWV7Qsg-3" value="&lt;div&gt;Text&lt;br&gt;&lt;/div&gt;" style="rounded=1;whiteSpace=wrap;html=1;comic=1;align=left;" vertex="1" parent="1MZnBSAuiF6gayV3EuST-0">
          <mxGeometry x="390" y="155" width="250" height="20" as="geometry" />
        </mxCell>
        <mxCell id="5rtwws6ky7I9tHWV7Qsg-5" value="Text" style="text;html=1;align=center;verticalAlign=middle;resizable=0;points=[];autosize=1;strokeColor=none;fillColor=none;" vertex="1" parent="1MZnBSAuiF6gayV3EuST-0">
          <mxGeometry x="380" y="35" width="50" height="30" as="geometry" />
        </mxCell>
        <mxCell id="yX65zhXdlnWnA5eB_CHY-0" value="Text" style="text;html=1;align=center;verticalAlign=middle;resizable=0;points=[];autosize=1;strokeColor=none;fillColor=none;" vertex="1" parent="1MZnBSAuiF6gayV3EuST-0">
          <mxGeometry x="380" y="125" width="50" height="30" as="geometry" />
        </mxCell>
        <mxCell id="yX65zhXdlnWnA5eB_CHY-2" value="&lt;div&gt;Text&lt;br&gt;&lt;/div&gt;" style="rounded=1;whiteSpace=wrap;html=1;comic=1;align=left;" vertex="1" parent="1MZnBSAuiF6gayV3EuST-0">
          <mxGeometry x="390" y="205" width="250" height="20" as="geometry" />
        </mxCell>
        <mxCell id="yX65zhXdlnWnA5eB_CHY-3" value="Text" style="text;html=1;align=center;verticalAlign=middle;resizable=0;points=[];autosize=1;strokeColor=none;fillColor=none;" vertex="1" parent="1MZnBSAuiF6gayV3EuST-0">
          <mxGeometry x="380" y="175" width="50" height="30" as="geometry" />
        </mxCell>
        <mxCell id="yX65zhXdlnWnA5eB_CHY-4" value="&lt;div&gt;Text&lt;br&gt;&lt;/div&gt;" style="rounded=1;whiteSpace=wrap;html=1;comic=1;align=left;" vertex="1" parent="1MZnBSAuiF6gayV3EuST-0">
          <mxGeometry x="390" y="255" width="250" height="20" as="geometry" />
        </mxCell>
        <mxCell id="yX65zhXdlnWnA5eB_CHY-5" value="Text" style="text;html=1;align=center;verticalAlign=middle;resizable=0;points=[];autosize=1;strokeColor=none;fillColor=none;" vertex="1" parent="1MZnBSAuiF6gayV3EuST-0">
          <mxGeometry x="380" y="225" width="50" height="30" as="geometry" />
        </mxCell>
        <mxCell id="yX65zhXdlnWnA5eB_CHY-6" value="***********" style="rounded=1;whiteSpace=wrap;html=1;comic=1;align=left;" vertex="1" parent="1MZnBSAuiF6gayV3EuST-0">
          <mxGeometry x="390" y="305" width="250" height="20" as="geometry" />
        </mxCell>
        <mxCell id="yX65zhXdlnWnA5eB_CHY-7" value="Text" style="text;html=1;align=center;verticalAlign=middle;resizable=0;points=[];autosize=1;strokeColor=none;fillColor=none;" vertex="1" parent="1MZnBSAuiF6gayV3EuST-0">
          <mxGeometry x="380" y="275" width="50" height="30" as="geometry" />
        </mxCell>
        <mxCell id="yX65zhXdlnWnA5eB_CHY-8" value="***********" style="rounded=1;whiteSpace=wrap;html=1;comic=1;align=left;" vertex="1" parent="1MZnBSAuiF6gayV3EuST-0">
          <mxGeometry x="390" y="355" width="250" height="20" as="geometry" />
        </mxCell>
        <mxCell id="yX65zhXdlnWnA5eB_CHY-9" value="Text" style="text;html=1;align=center;verticalAlign=middle;resizable=0;points=[];autosize=1;strokeColor=none;fillColor=none;" vertex="1" parent="1MZnBSAuiF6gayV3EuST-0">
          <mxGeometry x="380" y="325" width="50" height="30" as="geometry" />
        </mxCell>
      </root>
    </mxGraphModel>
  </diagram>
  <diagram name="desktop-register" id="5I21d3aWMoI6HJb9QmEh">
    <mxGraphModel dx="1793" dy="1178" grid="1" gridSize="10" guides="1" tooltips="1" connect="1" arrows="1" fold="1" page="1" pageScale="1" pageWidth="1600" pageHeight="900" background="none" math="0" shadow="0">
      <root>
        <mxCell id="TJkhNNNK4_uic69Dlc4S-0" />
        <mxCell id="TJkhNNNK4_uic69Dlc4S-1" style="locked=1;" parent="TJkhNNNK4_uic69Dlc4S-0" />
        <mxCell id="TJkhNNNK4_uic69Dlc4S-12" value="Content" style="locked=1;" parent="TJkhNNNK4_uic69Dlc4S-0" />
        <mxCell id="ZGZw2sZd0yd3o0Bcwbz5-0" value="" style="whiteSpace=wrap;html=1;rounded=0;shadow=0;labelBackgroundColor=none;strokeWidth=1;fillColor=none;fontFamily=Verdana;fontSize=12;align=center;comic=1;" vertex="1" parent="TJkhNNNK4_uic69Dlc4S-12">
          <mxGeometry x="565" y="125" width="470" height="650" as="geometry" />
        </mxCell>
        <mxCell id="ZGZw2sZd0yd3o0Bcwbz5-1" value="HEADER" style="whiteSpace=wrap;html=1;rounded=0;shadow=0;labelBackgroundColor=none;strokeWidth=1;fillColor=none;fontFamily=Verdana;fontSize=12;align=center;comic=1;" vertex="1" parent="TJkhNNNK4_uic69Dlc4S-12">
          <mxGeometry x="675" y="175" width="280" height="80" as="geometry" />
        </mxCell>
        <mxCell id="ZGZw2sZd0yd3o0Bcwbz5-2" value="&lt;font style=&quot;font-size: 20px;&quot;&gt;Button 1&lt;/font&gt;" style="whiteSpace=wrap;html=1;rounded=0;shadow=0;labelBackgroundColor=none;strokeWidth=1;fontFamily=Verdana;fontSize=20;align=center;comic=1;verticalAlign=middle;" vertex="1" parent="TJkhNNNK4_uic69Dlc4S-12">
          <mxGeometry x="735.12" y="715" width="159.75" height="40" as="geometry" />
        </mxCell>
        <mxCell id="ZGZw2sZd0yd3o0Bcwbz5-3" value="&lt;div&gt;Text&lt;br&gt;&lt;/div&gt;" style="rounded=1;whiteSpace=wrap;html=1;comic=1;align=left;" vertex="1" parent="TJkhNNNK4_uic69Dlc4S-12">
          <mxGeometry x="640" y="295" width="360" height="40" as="geometry" />
        </mxCell>
        <mxCell id="ZGZw2sZd0yd3o0Bcwbz5-4" value="Text" style="text;html=1;align=center;verticalAlign=middle;resizable=0;points=[];autosize=1;strokeColor=none;fillColor=none;" vertex="1" parent="TJkhNNNK4_uic69Dlc4S-12">
          <mxGeometry x="625" y="145" width="50" height="30" as="geometry" />
        </mxCell>
        <mxCell id="ZGZw2sZd0yd3o0Bcwbz5-5" value="Text" style="text;html=1;align=center;verticalAlign=middle;resizable=0;points=[];autosize=1;strokeColor=none;fillColor=none;" vertex="1" parent="TJkhNNNK4_uic69Dlc4S-12">
          <mxGeometry x="630" y="255" width="50" height="30" as="geometry" />
        </mxCell>
        <mxCell id="2A860L325QyEM5v1W8yT-0" value="&lt;div&gt;Text&lt;br&gt;&lt;/div&gt;" style="rounded=1;whiteSpace=wrap;html=1;comic=1;align=left;" vertex="1" parent="TJkhNNNK4_uic69Dlc4S-12">
          <mxGeometry x="640" y="385" width="360" height="40" as="geometry" />
        </mxCell>
        <mxCell id="2A860L325QyEM5v1W8yT-1" value="Text" style="text;html=1;align=center;verticalAlign=middle;resizable=0;points=[];autosize=1;strokeColor=none;fillColor=none;" vertex="1" parent="TJkhNNNK4_uic69Dlc4S-12">
          <mxGeometry x="630" y="345" width="50" height="30" as="geometry" />
        </mxCell>
        <mxCell id="2A860L325QyEM5v1W8yT-2" value="&lt;div&gt;Text&lt;br&gt;&lt;/div&gt;" style="rounded=1;whiteSpace=wrap;html=1;comic=1;align=left;" vertex="1" parent="TJkhNNNK4_uic69Dlc4S-12">
          <mxGeometry x="640" y="475" width="360" height="40" as="geometry" />
        </mxCell>
        <mxCell id="2A860L325QyEM5v1W8yT-3" value="Text" style="text;html=1;align=center;verticalAlign=middle;resizable=0;points=[];autosize=1;strokeColor=none;fillColor=none;" vertex="1" parent="TJkhNNNK4_uic69Dlc4S-12">
          <mxGeometry x="630" y="435" width="50" height="30" as="geometry" />
        </mxCell>
        <mxCell id="2A860L325QyEM5v1W8yT-4" value="***********" style="rounded=1;whiteSpace=wrap;html=1;comic=1;align=left;" vertex="1" parent="TJkhNNNK4_uic69Dlc4S-12">
          <mxGeometry x="640" y="565" width="360" height="40" as="geometry" />
        </mxCell>
        <mxCell id="2A860L325QyEM5v1W8yT-5" value="Text" style="text;html=1;align=center;verticalAlign=middle;resizable=0;points=[];autosize=1;strokeColor=none;fillColor=none;" vertex="1" parent="TJkhNNNK4_uic69Dlc4S-12">
          <mxGeometry x="630" y="525" width="50" height="30" as="geometry" />
        </mxCell>
        <mxCell id="2A860L325QyEM5v1W8yT-6" value="***********" style="rounded=1;whiteSpace=wrap;html=1;comic=1;align=left;" vertex="1" parent="TJkhNNNK4_uic69Dlc4S-12">
          <mxGeometry x="640" y="655" width="360" height="40" as="geometry" />
        </mxCell>
        <mxCell id="2A860L325QyEM5v1W8yT-7" value="Text" style="text;html=1;align=center;verticalAlign=middle;resizable=0;points=[];autosize=1;strokeColor=none;fillColor=none;" vertex="1" parent="TJkhNNNK4_uic69Dlc4S-12">
          <mxGeometry x="630" y="615" width="50" height="30" as="geometry" />
        </mxCell>
      </root>
    </mxGraphModel>
  </diagram>
</mxfile>
